<?xml version="1.0" encoding="UTF-8" standalone="no"?>
<!DOCTYPE svg PUBLIC "-//W3C//DTD SVG 1.1//EN" "http://www.w3.org/Graphics/SVG/1.1/DTD/svg11.dtd">
<svg width="100%" height="100%" viewBox="0 0 4167 1667" version="1.1" xmlns="http://www.w3.org/2000/svg" xmlns:xlink="http://www.w3.org/1999/xlink" xml:space="preserve" xmlns:serif="http://www.serif.com/" style="fill-rule:evenodd;clip-rule:evenodd;stroke-linejoin:round;stroke-miterlimit:2;">
    <g transform="matrix(4.16667,0,0,4.16667,0,0)">
        <g transform="matrix(1,0,0,1,40,11.5)">
            <path d="M382.54,122.09C381.5,123.78 380.5,125.63 378.66,126.57C374.24,129.04 370.65,132.67 366.39,135.38C364.38,136.72 362.13,137.92 360.8,140.03C361.51,146.46 367.99,149.43 370.39,154.99C370.27,155.68 370.01,157.07 369.88,157.77C365.84,158.01 361.69,157.7 357.76,158.74C354.26,160.99 352.41,164.89 350.2,168.27C347.42,163.24 343.86,158.74 339.96,154.54C329.93,159.02 322.23,167.03 313.07,172.88C310.22,173.75 306.9,173.31 304.53,175.44C296.43,181.84 287.68,187.34 279.28,193.33C275.62,196.56 271,198.56 267.64,202.12C266.14,204.32 264.73,206.65 262.64,208.36C260.5,209.66 258.36,211 256.58,212.78L254.78,214.49C252.46,216.05 250.19,218.46 247.29,218.62C244.11,217.1 242.37,213.76 240.1,211.22C235.85,215.47 230.69,218.53 225.72,221.82C224.32,223.04 223.02,224.37 221.63,225.6C217.17,228.55 211.66,228.48 206.56,227.91C208.5,225.04 211.28,222.95 214.19,221.15C213.38,219.44 212.55,217.74 211.55,216.14C209.73,213.51 207.7,211.02 205.96,208.34C205.69,207.93 205.16,207.11 204.89,206.71C204.6,206.26 204.01,205.37 203.71,204.92L203.22,204.18C202.25,202.81 201.24,201.48 200.23,200.14C195.37,203.46 189.23,206.08 187.2,212.1L187.73,212.84C189.47,215.31 191.37,217.66 193.1,220.14C193.62,220.95 194.11,221.77 194.58,222.61C195.19,223.79 195.75,225 196.37,226.18C198.5,229.61 202.68,229.54 206.11,228.49C203.89,231.72 201.96,235.12 199.71,238.33C198.42,239.83 197.09,241.86 194.85,241.75C189.74,242.15 185,239.79 180.07,238.9C180.84,238.03 181.66,237.21 182.53,236.44C185.75,236.33 188.92,237.09 192.12,237.41C189.87,232.47 186.03,228.59 183.13,224.07C181.99,222.31 180.89,220.53 179.7,218.81C179.33,218.28 178.59,217.24 178.22,216.72C176.34,217.98 174.45,219.24 172.63,220.58C171.93,217.73 171.43,214.84 170.76,211.99C170.05,211.08 169.31,210.2 168.52,209.36C167.92,209.08 166.7,208.53 166.1,208.25C164.87,208.66 156.94,213.96 154.7,216.7C154.26,218.31 155.28,219.92 155.73,221.43C156.12,222.29 156.55,223.13 157,223.96C157.96,224.64 158.95,225.28 160.05,225.71C163.32,224.36 165.91,221.84 168.68,219.69C169.17,220.31 170.17,221.55 170.66,222.16C167.38,225.19 163.41,227.56 160.84,231.3C160.36,232.12 159.92,232.97 159.47,233.82L158.71,233.54C158.56,231.62 150.2,219.91 148.45,217.58C145.06,214.13 146.04,209.01 145.17,204.7C142.69,200.46 138.93,197 134.72,194.49C136.76,193.38 138.92,192.28 140.38,190.42C140.38,186.95 139.43,183.56 139.06,180.12C139.66,180.23 140.87,180.44 141.48,180.55C142.44,182.56 143.47,184.54 144.38,186.59C146.34,190.29 145.08,194.39 143.95,198.12C145.34,198.08 146.74,198.04 148.14,198C148.11,194.39 147.98,190.77 147.74,187.16L152.12,185.72C152.73,183.93 153.32,182.13 153.91,180.34C155,180.84 156.09,181.33 157.16,181.86L157.95,182.27C156.33,184.12 154.73,186.01 153.5,188.14C153.68,188.51 154.03,189.27 154.21,189.64C155.05,191.63 155.74,193.68 156.55,195.68C157.03,196.75 157.54,197.81 158.12,198.84C160.4,198.72 162.69,198.56 164.98,198.56C169.56,200.88 171.081,206.982 174.731,208.207C178.381,209.432 182.43,208.27 186.88,205.91C188.297,203.697 208.68,184.33 213.64,180.41C216.86,177.95 213.73,173.8 214.55,170.58C215.99,167.9 227.18,159.41 231.26,158.19C237.82,156.04 242.57,150.8 248.43,147.41C253.35,144.77 257.61,141.18 262.02,137.81C262.048,137.817 267.973,133.886 269.38,132.45C273.52,130.02 277.13,126.85 281.03,124.07C283.08,123.14 285.14,122.21 287.06,121.02C287.33,120.75 287.86,120.21 288.12,119.94C291.37,116.85 295.67,115.13 298.81,111.91C302.48,108.3 306.99,105.76 311.39,103.14C313.88,100.67 316.62,98.46 319.68,96.71C324.34,92.37 330.11,89.59 335.72,86.7C340.02,84.6 342.79,80.42 347.03,78.24C353.56,75.83 358.6,71.08 364.11,67.05C367.15,65.15 370.16,63.2 373.07,61.09C377.71,57.71 383.17,55.24 386.79,50.62C388.8,48.01 391.13,45.64 393.89,43.82C399.26,40.3 402.92,34.75 408.52,31.53C416.67,25.27 425.8,20.48 433.98,14.25C440.29,9.09 447.71,5.47 453.76,0C453.76,0 456.143,-1.857 457.083,-1.857C458.023,-1.857 459.4,0 459.4,0C466.44,9.77 486.16,37.14 489.13,40.95C490.65,43.03 492.34,45.21 492.75,47.83C490.93,50.75 488.08,52.82 485.34,54.8C483.07,56.07 477.14,59.66 476.6,60.53C474.24,62.02 460.61,71.99 455.64,74.79C451.63,77.06 448.33,80.29 445.06,83.47C442.63,85.11 439.945,88.34 438.12,88.89C436.672,89.326 430.46,90.6 428.44,92.31C426.41,93.4 424.47,94.64 422.65,96.05C419.811,96.68 393.632,114.394 391,115.88C388.03,117.71 384.13,118.65 382.54,122.09ZM413.879,95.694C414.237,92.542 413.716,89.294 411.79,86.71C409.15,83.02 406.25,79.54 403.7,75.8C401.1,71.64 398.37,67.56 395.11,63.88C394.81,63.38 394.21,62.39 393.91,61.9C392.23,59.11 390.6,56.29 388.81,53.57C381.33,58.79 373.84,63.99 366.11,68.83C361.23,72.38 356.21,75.74 351.11,78.97C352.58,81.98 354.54,84.71 356.76,87.22C359.91,90.85 361.78,95.37 364.78,99.12C366.1,100.69 367.57,102.14 368.94,103.68C371.13,106.29 372.39,109.49 373.82,112.54L374.22,113.14C376.42,115.31 379.42,119.23 382.79,116.9C388.11,113.95 392.33,109.42 397.36,106.03C397.393,106.109 407.886,95.679 413.879,95.694ZM422.9,58.22C422.28,57.31 421.65,56.41 421.02,55.52C416.04,49.07 412.22,41.81 407.02,35.53C405.96,36.09 404.91,36.65 403.87,37.22C404.95,43.21 410.1,46.91 412.98,51.96C413.94,53.44 414.92,54.91 415.96,56.34C418.74,60.07 421.7,63.67 424.4,67.47C428.59,73.43 432.72,79.46 437.35,85.1C437.67,83.04 438.48,80.77 437.1,78.9C433.28,72.32 428.11,66.64 424.12,60.17C423.82,59.68 423.21,58.71 422.9,58.22ZM410.45,53.41C409.56,52.15 408.61,50.94 407.67,49.73C405.88,47.56 404.22,45.2 401.97,43.48C398,44.39 394.08,46.36 391.33,49.4C390.85,53.09 393.69,55.96 395.71,58.69C396.87,60.17 398.02,61.66 399.14,63.18C400.43,64.92 401.66,66.7 402.9,68.48C404.82,71.25 406.96,73.85 409.21,76.36C410.24,77.52 411.26,78.7 412.22,79.93C415.08,84.3 417.96,88.66 421.01,92.9C423.76,90.24 427.06,88.24 429.96,85.74C431.32,84.84 430.12,83.4 429.65,82.36C427.31,78.62 424.38,75.26 422.39,71.3C421.43,69.63 420.48,67.95 419.37,66.38C417.82,64.53 416.13,62.8 414.72,60.85C413.26,58.38 412.02,55.8 410.45,53.41ZM286.79,125.91C286.28,127.14 285.3,128.59 286.18,129.89C288.66,134.8 292.41,138.89 295.66,143.28C298.43,147.06 300.89,151.06 303.34,155.05C306.35,158.99 307.91,165.02 312.96,166.74C318.51,164.18 322.03,158.72 326.59,154.81C323.38,150.34 320.04,145.93 317.44,141.06C314.83,136.74 311.48,132.94 308.77,128.69C306.85,125.65 305.52,122.29 303.61,119.26C302.09,118.43 300.43,116.51 298.6,117.56C294.27,119.72 290.52,122.87 286.79,125.91ZM233.51,160.3C228.52,161.7 218.64,170.85 217.53,172.34C219.03,176.23 221.55,179.58 224.62,182.35C225.35,184.1 225.97,185.9 226.55,187.71C227.45,188.62 228.36,189.53 229.28,190.44C231.12,192.24 232.69,194.3 234.06,196.48C234.92,197.84 235.75,199.22 236.64,200.57C239.79,204.88 242.89,209.39 247.12,212.71C252.61,210.89 257.21,207.16 262.33,204.55C259.79,198.96 256.24,193.89 252.49,189.05C251.47,187.8 250.41,186.58 249.43,185.31C247.21,182.27 245.45,178.94 243.43,175.77C241.82,173.04 239.51,170.84 237.22,168.7C235.39,166.19 234.38,163.25 233.51,160.3ZM225.89,189.58C224.68,187.74 223.39,185.96 221.98,184.27C221.04,183.3 220.07,182.38 219.1,181.45C215.24,184.2 211.25,186.76 207.23,189.27C203.73,191.44 200.6,197.06 202.43,198.86C202.71,199.16 203.27,199.77 203.55,200.07C204.38,201.43 205.15,202.84 206.08,204.14C208.42,207.36 211.31,210.13 213.6,213.39C214.15,214.26 214.7,215.14 215.24,216.03C216.57,218.2 218.15,220.2 219.79,222.15C224.66,218.45 230.32,215.89 234.92,211.86C238.05,209.25 235.64,205.08 234.45,202.11C233.44,200.53 232.35,199 231.18,197.55C229.95,196.06 228.68,194.61 227.57,193.04C226.96,191.91 226.42,190.75 225.89,189.58ZM284.66,136.4L284.27,135.8C282.69,133.45 280.92,131.21 279.27,128.91C276.609,131.51 272.822,135.613 268.458,137.434C260.392,144.516 247.926,152.569 238.24,156.69C236.18,162.67 242.07,166.89 244.66,171.56C246.22,173.96 247.68,176.43 249.35,178.76C251.33,181.44 253.69,183.8 255.77,186.41C257.91,189.66 259.52,193.24 261.66,196.49C261.99,196.9 262.63,197.72 262.96,198.13C263.9,198.43 264.85,198.74 265.8,199.04C269.67,195.46 273.66,191.92 278.41,189.54C282.73,187.37 286.29,184.06 290.12,181.18C294.33,177.95 299.47,176.06 303.33,172.36C305.72,170.1 303.77,166.54 303.27,163.86C301.92,161.89 300.49,159.99 299.17,158.01C297.99,156.21 296.77,154.44 295.52,152.7C294.24,150.94 292.91,149.23 291.65,147.47C289.09,143.93 287.01,140.08 284.66,136.4ZM411.57,36.92C413.02,39.54 414.57,42.11 416.4,44.48C417.87,46.11 419.47,47.61 420.9,49.28C421.59,50.39 422.24,51.54 422.86,52.69C423.068,53.087 423.786,54.442 424.578,55.852C425.383,57.286 426.266,58.775 426.77,59.37C428.09,60.97 429.36,62.6 430.6,64.26C431.33,65.25 432.05,66.24 432.78,67.24C433.81,68.66 434.83,70.1 435.83,71.55C436.79,72.96 437.73,74.38 438.73,75.77C439.78,77.2 440.91,78.61 442.28,79.75C445.38,79.24 447.82,77.09 450.36,75.4C457.98,69.81 466.37,65.02 472.45,57.62C473.93,55.42 483.47,51.6 485.86,48.8C487.96,46.79 485.82,43.92 484.92,41.83C483.55,39.99 482.09,38.23 480.68,36.43C480.06,35.63 479.46,34.83 478.89,34.01C478.19,32.96 477.56,31.87 477,30.75C476.53,29.41 474.41,26.23 473.78,26C472.6,24.47 471.46,22.93 470.34,21.37C469.77,20.59 469.21,19.82 468.66,19.04C467.98,18.1 467.31,17.16 466.68,16.19C464.87,13.4 463.43,10.39 461.57,7.63C460.16,5.67 458.36,4.06 456.72,2.31C451.916,5.01 447.457,8.235 442.971,11.421C440.678,13.05 438.378,14.668 436.02,16.2C431.86,18.93 427.82,21.84 423.52,24.35C418.84,27.56 411.64,30.24 411.57,36.92ZM331.38,96.41C336.72,100.46 340.32,106.16 344.28,111.44C346.41,114.24 348.58,117.02 350.7,119.82C353.68,124.38 357.07,128.72 361.49,131.99C365.05,128.33 370.64,126.55 373.08,121.96C371.34,116.4 367.5,111.86 363.97,107.35C360.94,103.32 358.69,98.77 355.7,94.72C353.66,91.88 351.87,88.88 350.12,85.87C348.9,85.12 347.66,84.43 346.42,83.74C341.7,88.33 335.16,90.84 331.38,96.41Z" style="fill:rgb(22,15,4);"/>
        </g>
        <g transform="matrix(1,0,0,1,40,11.5)">
            <path d="M456.72,2.31C460.515,5.701 462.798,8.658 464.979,13.192C463.849,14.032 457.61,18.35 457.13,19.35C455.27,19.47 431.02,35.49 430.27,34.82C427.83,35.75 419.69,43.2 416.4,44.48C414.57,42.11 413.02,39.54 411.57,36.92C411.64,30.24 418.84,27.56 423.52,24.35C427.82,21.84 431.86,18.93 436.02,16.2C442.99,11.67 449.46,6.39 456.72,2.31Z" style="fill:rgb(228,225,194);fill-rule:nonzero;"/>
        </g>
        <g transform="matrix(1,0,0,1,40,11.5)">
            <path d="M464.643,12.755C463.934,10.968 464.87,13.4 466.68,16.19C463.54,20.33 458.77,22.6 454.9,25.92C449.92,30.09 444.68,34.35 438.3,36.09C434.27,36.91 433.64,41.88 430.31,43.76C427.19,45.63 423.92,47.25 420.9,49.28C419.47,47.61 417.87,46.11 416.4,44.48C419.69,43.2 427.83,35.75 430.27,34.82C431.02,35.49 455.27,19.47 457.13,19.35C457.61,18.35 464.133,13.745 464.643,12.755Z" style="fill:rgb(214,180,153);fill-rule:nonzero;"/>
        </g>
        <g transform="matrix(1,0,0,1,40,11.5)">
            <path d="M466.68,16.19C467.31,17.16 467.98,18.1 468.66,19.04C467.44,21.54 466.12,24.11 463.81,25.78C458.84,29.59 453.97,33.61 448.39,36.51C442.25,39.75 436.97,44.28 431.62,48.64C429.12,50.78 426.02,51.95 422.86,52.69C422.24,51.54 421.59,50.39 420.9,49.28C423.92,47.25 427.19,45.63 430.31,43.76C433.64,41.88 434.27,36.91 438.3,36.09C444.68,34.35 449.92,30.09 454.9,25.92C458.77,22.6 463.54,20.33 466.68,16.19Z" style="fill:rgb(191,167,135);fill-rule:nonzero;"/>
        </g>
        <g transform="matrix(1,0,0,1,40,11.5)">
            <path d="M468.66,19.04C469.21,19.82 469.77,20.59 470.34,21.37C466.73,30.81 457.25,35.92 448.5,39.72C442.98,43.69 437.76,48.12 432.74,52.7C430.34,54.67 427.02,54.58 424.12,55.1C423.7,54.29 423.28,53.49 422.86,52.69C426.02,51.95 429.12,50.78 431.62,48.64C436.97,44.28 442.25,39.75 448.39,36.51C453.97,33.61 458.84,29.59 463.81,25.78C466.12,24.11 467.44,21.54 468.66,19.04Z" style="fill:rgb(172,145,122);fill-rule:nonzero;"/>
        </g>
        <g transform="matrix(1,0,0,1,40,11.5)">
            <path d="M470.34,21.37C471.46,22.93 472.6,24.47 473.78,26C472.84,28.45 471.69,30.94 469.43,32.44C465.02,35.66 460.99,39.32 456.79,42.8C453.4,45.74 448.11,44.57 444.96,47.88C440.32,52.2 435.86,56.79 430.83,60.64C429.41,60.43 428.08,59.9 426.77,59.37C425.77,58.19 424.12,55.1 424.12,55.1C427.02,54.58 430.34,54.67 432.74,52.7C437.76,48.12 442.98,43.69 448.5,39.72C457.25,35.92 466.73,30.81 470.34,21.37Z" style="fill:rgb(152,125,111);fill-rule:nonzero;"/>
        </g>
        <g transform="matrix(1,0,0,1,40,11.5)">
            <path d="M473.78,26C474.41,26.23 476.53,29.41 477,30.75C473.12,37.89 465.49,41.51 459.02,45.88C451.38,50.2 444.76,56.09 436.97,60.15C434.75,61.37 432.65,62.79 430.6,64.26C429.36,62.6 428.09,60.97 426.77,59.37C428.08,59.9 429.41,60.43 430.83,60.64C435.86,56.79 440.32,52.2 444.96,47.88C448.11,44.57 453.4,45.74 456.79,42.8C460.99,39.32 465.02,35.66 469.43,32.44C471.69,30.94 472.84,28.45 473.78,26Z" style="fill:rgb(136,121,92);fill-rule:nonzero;"/>
        </g>
        <g transform="matrix(1,0,0,1,40,11.5)">
            <path d="M477,30.75C477.56,31.87 478.19,32.96 478.89,34.01C474.3,38.8 469.82,43.95 463.73,46.87C456.82,50.27 451.28,55.71 444.94,59.98C441.05,62.67 436.91,64.96 432.78,67.24C432.05,66.24 431.33,65.25 430.6,64.26C432.65,62.79 434.75,61.37 436.97,60.15C444.76,56.09 451.38,50.2 459.02,45.88C465.49,41.51 473.12,37.89 477,30.75Z" style="fill:rgb(130,105,66);fill-rule:nonzero;"/>
        </g>
        <g transform="matrix(1,0,0,1,40,11.5)">
            <path d="M463.73,46.87C469.82,43.95 474.3,38.8 478.89,34.01C479.46,34.83 480.06,35.63 480.68,36.43C478.19,41.26 474.1,44.85 469.48,47.58C463.77,52.08 456.65,54.29 451.07,58.98C445.76,62.91 441.58,68.21 435.83,71.55C434.83,70.1 433.81,68.66 432.78,67.24C436.91,64.96 441.05,62.67 444.94,59.98C451.28,55.71 456.82,50.27 463.73,46.87Z" style="fill:rgb(123,86,41);fill-rule:nonzero;"/>
        </g>
        <g transform="matrix(1,0,0,1,40,11.5)">
            <path d="M403.87,37.22C404.91,36.65 405.96,36.09 407.02,35.53C412.22,41.81 416.04,49.07 421.02,55.52C419.33,55.8 417.64,56.07 415.96,56.34C414.92,54.91 413.94,53.44 412.98,51.96C410.1,46.91 404.95,43.21 403.87,37.22Z" style="fill:rgb(216,220,199);fill-rule:nonzero;"/>
        </g>
        <g transform="matrix(1,0,0,1,40,11.5)">
            <path d="M480.68,36.43C482.09,38.23 483.55,39.99 484.92,41.83C481.72,48.37 473.7,48.4 468.43,52.39C463.74,55.29 460.22,59.57 456.55,63.59C453.96,66.48 449.41,65.39 446.42,67.44C444.07,70.42 442.18,73.87 438.73,75.77C437.73,74.38 436.79,72.96 435.83,71.55C441.58,68.21 445.76,62.91 451.07,58.98C456.65,54.29 463.77,52.08 469.48,47.58C474.1,44.85 478.19,41.26 480.68,36.43Z" style="fill:rgb(115,69,16);fill-rule:nonzero;"/>
        </g>
        <g transform="matrix(1,0,0,1,40,11.5)">
            <path d="M484.92,41.83C485.82,43.92 487.96,46.79 485.86,48.8C483.47,51.6 473.93,55.42 472.45,57.62C466.37,65.02 457.98,69.81 450.36,75.4C447.82,77.09 445.38,79.24 442.28,79.75C440.91,78.61 439.78,77.2 438.73,75.77C442.18,73.87 444.07,70.42 446.42,67.44C449.41,65.39 453.96,66.48 456.55,63.59C460.22,59.57 463.74,55.29 468.43,52.39C473.7,48.4 481.72,48.37 484.92,41.83Z" style="fill:rgb(106,57,4);fill-rule:nonzero;"/>
        </g>
        <g transform="matrix(1,0,0,1,40,11.5)">
            <path d="M401.97,43.48C404.22,45.2 405.88,47.56 407.67,49.73C407.53,52.38 407.64,55.1 406.89,57.67C404.79,60.05 401.66,61.26 399.14,63.18C398.02,61.66 396.87,60.17 395.71,58.69C393.69,55.96 390.85,53.09 391.33,49.4C394.08,46.36 398,44.39 401.97,43.48Z" style="fill:rgb(240,213,199);fill-rule:nonzero;"/>
        </g>
        <g transform="matrix(1,0,0,1,40,11.5)">
            <path d="M407.67,49.73C408.61,50.94 409.56,52.15 410.45,53.41C412.02,55.8 413.26,58.38 414.72,60.85C413.58,62.6 412.75,64.68 411.05,65.97C408.55,67.39 405.67,67.86 402.9,68.48C401.66,66.7 400.43,64.92 399.14,63.18C401.66,61.26 404.79,60.05 406.89,57.67C407.64,55.1 407.53,52.38 407.67,49.73Z" style="fill:rgb(211,179,147);fill-rule:nonzero;"/>
        </g>
        <g transform="matrix(1,0,0,1,40,11.5)">
            <path d="M366.11,68.83C373.84,63.99 381.33,58.79 388.81,53.57C390.6,56.29 392.23,59.11 393.91,61.9C394.21,62.39 398.641,67.042 399.608,69.147C400.34,70.739 389.85,74.48 386.96,76.07C382.8,78.37 379.66,82.02 375.89,84.86C373.54,86.76 370.88,88.32 368.83,90.57C367.14,93.29 368.09,97.46 364.78,99.12C361.78,95.37 359.91,90.85 356.76,87.22C354.54,84.71 352.58,81.98 351.11,78.97C356.21,75.74 361.23,72.38 366.11,68.83Z" style="fill:rgb(194,166,137);fill-rule:nonzero;"/>
        </g>
        <g transform="matrix(1,0,0,1,40,11.5)">
            <path d="M421.02,55.52C421.65,56.41 422.28,57.31 422.9,58.22C423.21,58.71 423.82,59.68 424.12,60.17C424.76,62.55 424.83,65.04 424.4,67.47C421.7,63.67 418.74,60.07 415.96,56.34C417.64,56.07 419.33,55.8 421.02,55.52Z" style="fill:rgb(153,129,118);fill-rule:nonzero;"/>
        </g>
        <g transform="matrix(1,0,0,1,40,11.5)">
            <path d="M424.12,60.17C428.11,66.64 433.28,72.32 437.1,78.9C438.48,80.77 437.67,83.04 437.35,85.1C432.72,79.46 428.59,73.43 424.4,67.47C424.83,65.04 424.76,62.55 424.12,60.17Z" style="fill:rgb(90,52,12);fill-rule:nonzero;"/>
        </g>
        <g transform="matrix(1,0,0,1,40,11.5)">
            <path d="M414.72,60.85C416.13,62.8 417.82,64.53 419.37,66.38C418.52,68.43 417.86,70.67 416.34,72.35C414.33,74.24 411.67,75.2 409.21,76.36C406.96,73.85 404.82,71.25 402.9,68.48C405.67,67.86 408.55,67.39 411.05,65.97C412.75,64.68 413.58,62.6 414.72,60.85Z" style="fill:rgb(149,126,108);fill-rule:nonzero;"/>
        </g>
        <g transform="matrix(1,0,0,1,40,11.5)">
            <path d="M398.112,68.973C400.902,68.928 401.1,71.64 403.7,75.8C402.38,78.59 401.67,82.01 399.09,83.95C396.4,84.89 393.49,84.89 390.8,85.81C388.55,88.22 387.03,91.31 384.25,93.21C379.21,96.8 374.5,100.9 368.94,103.68C367.57,102.14 366.1,100.69 364.78,99.12C368.09,97.46 367.14,93.29 368.83,90.57C370.88,88.32 373.54,86.76 375.89,84.86C379.66,82.02 382.8,78.37 386.96,76.07C389.85,74.48 395.322,69.018 398.112,68.973Z" style="fill:rgb(163,130,116);fill-rule:nonzero;"/>
        </g>
        <g transform="matrix(1,0,0,1,40,11.5)">
            <path d="M419.37,66.38C420.48,67.95 421.43,69.63 422.39,71.3C420.34,75.52 416.18,77.83 412.22,79.93C411.26,78.7 410.24,77.52 409.21,76.36C411.67,75.2 414.33,74.24 416.34,72.35C417.86,70.67 418.52,68.43 419.37,66.38Z" style="fill:rgb(125,98,55);fill-rule:nonzero;"/>
        </g>
        <g transform="matrix(1,0,0,1,40,11.5)">
            <path d="M422.39,71.3C424.38,75.26 427.31,78.62 429.65,82.36C430.12,83.4 431.32,84.84 429.96,85.74C427.06,88.24 423.76,90.24 421.01,92.9C417.96,88.66 415.08,84.3 412.22,79.93C416.18,77.83 420.34,75.52 422.39,71.3Z" style="fill:rgb(108,58,4);fill-rule:nonzero;"/>
        </g>
        <g transform="matrix(1,0,0,1,40,11.5)">
            <path d="M403.7,75.8C406.25,79.54 409.15,83.02 411.79,86.71C410.74,88.55 410.01,90.66 408.44,92.13C404.75,94.38 399.97,93.85 396.43,96.4C393.63,98.58 391.51,101.49 388.85,103.83C384.53,107.78 379.18,110.34 373.82,112.54C372.39,109.49 371.13,106.29 368.94,103.68C374.5,100.9 379.21,96.8 384.25,93.21C387.03,91.31 388.55,88.22 390.8,85.81C393.49,84.89 396.4,84.89 399.09,83.95C401.67,82.01 402.38,78.59 403.7,75.8Z" style="fill:rgb(144,127,98);fill-rule:nonzero;"/>
        </g>
        <g transform="matrix(1,0,0,1,40,11.5)">
            <path d="M331.38,96.41C335.16,90.84 341.7,88.33 346.42,83.74C347.66,84.43 348.9,85.12 350.12,85.87C351.87,88.88 353.66,91.88 355.7,94.72C355.33,97.21 355.17,99.79 354.24,102.16C351.61,103.65 344.79,109.34 344.28,111.44C340.32,106.16 336.72,100.46 331.38,96.41Z" style="fill:rgb(192,171,136);fill-rule:nonzero;"/>
        </g>
        <g transform="matrix(1,0,0,1,40,11.5)">
            <path d="M411.79,86.71C413.78,89.38 415.74,93.467 413.84,96.01C411.435,99.23 397.627,106.661 397.36,106.03C392.33,109.42 388.11,113.95 382.79,116.9C379.42,119.23 376.42,115.31 374.22,113.14L373.82,112.54C379.18,110.34 384.53,107.78 388.85,103.83C391.51,101.49 393.63,98.58 396.43,96.4C399.97,93.85 404.75,94.38 408.44,92.13C410.01,90.66 410.74,88.55 411.79,86.71Z" style="fill:rgb(132,110,73);fill-rule:nonzero;"/>
        </g>
        <g transform="matrix(1,0,0,1,40,11.5)">
            <path d="M355.7,94.72C358.69,98.77 360.94,103.32 363.97,107.35C363.52,109.9 363.72,112.82 362.04,114.97C360.1,117.4 357.74,119.44 355.55,121.63C353.92,121.04 352.29,120.48 350.7,119.82C348.58,117.02 346.41,114.24 344.28,111.44C344.79,109.34 351.61,103.65 354.24,102.16C355.17,99.79 355.33,97.21 355.7,94.72Z" style="fill:rgb(161,129,112);fill-rule:nonzero;"/>
        </g>
        <g transform="matrix(1,0,0,1,40,11.5)">
            <path d="M325.28,98.23C326.07,97.3 327.29,97.3 328.39,97.53C331.2,100.79 332.3,105.19 335.34,108.31C334.9,110.6 334.93,113.33 332.85,114.84C327.59,119.35 322.05,123.73 318.39,129.74C317.93,128.52 317.46,127.3 317.01,126.09C316.41,126.31 315.21,126.76 314.61,126.98C311.28,123.49 308.1,119.63 306.56,114.99C307.42,111.95 309.74,109.58 312.67,108.47C317.83,106.37 321.23,101.82 325.28,98.23Z" style="fill:rgb(192,167,135);fill-rule:nonzero;"/>
        </g>
        <g transform="matrix(1,0,0,1,40,11.5)">
            <path d="M335.34,108.31C337.58,111.6 339.78,114.94 341.41,118.59C340.1,121.84 339.12,125.31 337.01,128.15C335.05,130.62 327.43,138.79 325.44,141.68C321.28,137.22 317.26,132.54 314.61,126.98C315.21,126.76 327.59,119.35 332.85,114.84C334.93,113.33 334.9,110.6 335.34,108.31Z" style="fill:rgb(160,126,116);fill-rule:nonzero;"/>
        </g>
        <g transform="matrix(1,0,0,1,40,11.5)">
            <path d="M363.97,107.35C367.5,111.86 371.34,116.4 373.08,121.96C370.64,126.55 365.05,128.33 361.49,131.99C357.07,128.72 353.68,124.38 350.7,119.82C352.29,120.48 360.1,117.4 362.04,114.97C363.72,112.82 363.52,109.9 363.97,107.35Z" style="fill:rgb(135,118,87);fill-rule:nonzero;"/>
        </g>
        <g transform="matrix(1,0,0,1,40,11.5)">
            <path d="M298.6,117.56C300.43,116.51 302.09,118.43 303.61,119.26C305.52,122.29 306.85,125.65 308.77,128.69C307.89,131.38 307.56,134.43 305.73,136.7C302.68,139.33 298.96,141 295.66,143.28C292.41,138.89 288.66,134.8 286.18,129.89C285.3,128.59 286.28,127.14 286.79,125.91C290.52,122.87 294.27,119.72 298.6,117.56Z" style="fill:rgb(191,167,137);fill-rule:nonzero;"/>
        </g>
        <g transform="matrix(1,0,0,1,40,11.5)">
            <path d="M337.01,128.15C339.12,125.31 341.63,117.98 341.63,117.98C345.68,123.83 349.43,129.85 353.05,135.96C346.44,137.86 337.33,148.46 337.89,149.22C336.31,150.02 334.74,150.86 333.05,151.37C329.55,149.22 325.44,141.68 325.44,141.68C327.43,138.79 328.28,135.37 328.9,131.97C331.72,131.08 335.05,130.62 337.01,128.15Z" style="fill:rgb(137,122,91);fill-rule:nonzero;"/>
        </g>
        <g transform="matrix(1,0,0,1,40,11.5)">
            <path d="M113.215,163.213C111.193,162.815 109.18,162.227 107.18,161.76C105.08,162.97 103.55,164.9 101.92,166.64C100.7,164.48 99.51,162.31 98.32,160.15C100.99,159.4 103.66,158.62 106.31,157.81L108.55,157.17L109.27,156.98C109.69,155.66 109.97,154.3 110.12,152.92C110.37,151.38 110.68,149.85 110.93,148.31C111.06,147.23 112.606,146.343 113.33,145.276C114.173,144.033 114.11,142.88 115.99,140.85C117.98,138.51 119.27,135.72 119.87,132.71C121.49,129.96 128.743,129.266 130.03,129.16C131.988,128.998 135.37,125.46 138.7,125.84C139.19,126.09 140.19,126.58 140.69,126.83C142.84,129.78 145.79,131.96 148.63,134.19C149.81,134.15 151,134.12 152.19,134.08C156.18,138.32 161.11,141.98 162.84,147.83C163.56,151.72 164.25,155.63 164.46,159.59C165.3,160.05 166.735,162.079 166.62,163.59C166.427,166.13 164.23,171.03 163.3,174.83C161.96,177.6 159.99,179.99 157.95,182.27L157.16,181.86C155.37,177 155.9,171.46 153.06,166.97C149.48,168.27 146.02,170.35 142.14,170.5C138.07,170.06 134.27,168.34 130.48,166.88C130.62,165.6 130.75,164.32 130.87,163.04C132.08,161.96 133.29,160.88 134.5,159.81C134.54,158.92 134.58,158.04 134.62,157.15C131.01,156.76 126.85,156.49 124.14,159.42C123.71,163.79 124.77,168.07 125.65,172.32C123.5,169.59 122.21,166.33 121.76,162.91C118.928,163.942 116.109,163.774 113.309,163.231C113.283,163.238 113.256,163.244 113.23,163.25C113.225,163.238 113.22,163.225 113.215,163.213Z" style="fill:rgb(60,2,1);"/>
        </g>
        <g transform="matrix(1,0,0,1,40,11.5)">
            <path d="M238.24,156.69C248.23,152.44 275.37,132.72 279.27,128.91C280.92,131.21 282.69,133.45 284.27,135.8C284.97,139.02 287.3,143.48 284.09,146.04C279.45,150.36 273.81,153.34 268.18,156.14C264.44,157.93 262.22,161.54 259.31,164.3C256.98,166.57 253.69,167.23 250.68,168.1C249.95,169.21 249.22,170.32 248.5,171.43C247.22,171.47 245.94,171.52 244.66,171.56C242.07,166.89 236.18,162.67 238.24,156.69Z" style="fill:rgb(193,172,138);fill-rule:nonzero;"/>
        </g>
        <g transform="matrix(1,0,0,1,40,11.5)">
            <path d="M308.77,128.69C311.48,132.94 314.83,136.74 317.44,141.06C316.89,146.66 313.92,152.09 309.02,154.99C307.2,155.64 305.22,155.13 303.34,155.05C300.89,151.06 298.43,147.06 295.66,143.28C298.96,141 302.68,139.33 305.73,136.7C307.56,134.43 307.89,131.38 308.77,128.69Z" style="fill:rgb(154,129,110);fill-rule:nonzero;"/>
        </g>
        <g transform="matrix(1,0,0,1,40,11.5)">
            <path d="M284.27,135.8L284.66,136.4C287.01,140.08 289.09,143.93 291.65,147.47C290.56,149.7 289.66,152.16 287.78,153.87C285,155.35 281.31,154.46 278.94,156.85C274.53,160.8 270.44,165.17 265.46,168.42C262.28,170.51 258.32,171 255.19,173.15C254.36,175.27 255.16,177.67 255.24,179.88C253.28,179.51 251.31,179.14 249.35,178.76C247.68,176.43 246.22,173.96 244.66,171.56C245.94,171.52 247.22,171.47 248.5,171.43C249.22,170.32 249.95,169.21 250.68,168.1C253.69,167.23 256.98,166.57 259.31,164.3C262.22,161.54 264.44,157.93 268.18,156.14C273.81,153.34 279.45,150.36 284.09,146.04C287.3,143.48 284.97,139.02 284.27,135.8Z" style="fill:rgb(173,144,123);fill-rule:nonzero;"/>
        </g>
        <g transform="matrix(1,0,0,1,40,11.5)">
            <path d="M317.44,141.06C320.04,145.93 323.38,150.34 326.59,154.81C322.03,158.72 318.51,164.18 312.96,166.74C307.91,165.02 306.35,158.99 303.34,155.05C305.22,155.13 307.2,155.64 309.02,154.99C313.92,152.09 316.89,146.66 317.44,141.06Z" style="fill:rgb(136,117,82);fill-rule:nonzero;"/>
        </g>
        <g transform="matrix(1,0,0,1,40,11.5)">
            <path d="M287.78,153.87C289.66,152.16 290.56,149.7 291.65,147.47C292.91,149.23 294.24,150.94 295.52,152.7C292.85,157.76 290.11,162.99 285.8,166.88C283.3,169.11 279.57,168.79 276.97,170.86C274.03,173.01 270.96,174.97 267.96,177.03C264.61,179.38 262.37,182.88 260.14,186.23C258.68,186.29 257.22,186.35 255.77,186.41C253.69,183.8 251.33,181.44 249.35,178.76C251.31,179.14 253.28,179.51 255.24,179.88C255.16,177.67 254.36,175.27 255.19,173.15C258.32,171 262.28,170.51 265.46,168.42C270.44,165.17 274.53,160.8 278.94,156.85C281.31,154.46 285,155.35 287.78,153.87Z" style="fill:rgb(154,125,112);fill-rule:nonzero;"/>
        </g>
        <g transform="matrix(1,0,0,1,40,11.5)">
            <path d="M295.52,152.7C296.77,154.44 297.99,156.21 299.17,158.01C299.88,161.43 301.42,166.4 297.5,168.45C292.58,171.39 287.67,174.49 284.14,179.12C282.36,178.95 280.54,178.47 278.77,178.85C276.93,179.92 275.53,181.59 274.08,183.12C270.02,187.65 265.61,191.86 261.66,196.49C259.52,193.24 257.91,189.66 255.77,186.41C257.22,186.35 258.68,186.29 260.14,186.23C262.37,182.88 264.61,179.38 267.96,177.03C270.96,174.97 274.03,173.01 276.97,170.86C279.57,168.79 283.3,169.11 285.8,166.88C290.11,162.99 292.85,157.76 295.52,152.7Z" style="fill:rgb(140,124,93);fill-rule:nonzero;"/>
        </g>
        <g transform="matrix(1,0,0,1,40,11.5)">
            <path d="M370.39,154.99C370.67,156.53 370.87,158.08 371.13,159.63C367.63,159.61 363.95,159.18 360.6,160.44C358.13,162.83 356.48,165.94 354.95,168.98C354.79,169.34 354.48,170.06 354.33,170.43C352.94,169.72 351.55,169.03 350.2,168.27C352.41,164.89 354.26,160.99 357.76,158.74C361.69,157.7 365.84,158.01 369.88,157.77C370.01,157.07 370.27,155.68 370.39,154.99Z" style="fill:rgb(196,168,167);fill-rule:nonzero;"/>
        </g>
        <g transform="matrix(1,0,0,1,40,11.5)">
            <path d="M127.92,160.68C127.375,161.788 127.87,165.01 127.85,167.18C127.48,167.17 126.591,167.572 126.38,167.13C125.762,165.837 125.11,161.92 124.14,159.42C126.85,156.49 131.01,156.76 134.62,157.15C134.58,158.04 134.54,158.92 134.5,159.81C133.29,160.88 132.08,161.96 130.87,163.04C130.94,162.41 131.612,160.923 131.12,160.53C130.628,160.137 128.391,159.722 127.92,160.68Z" style="fill:rgb(84,81,73);"/>
        </g>
        <g transform="matrix(1,0,0,1,40,11.5)">
            <path d="M299.17,158.01C300.49,159.99 301.92,161.89 303.27,163.86C303.77,166.54 305.72,170.1 303.33,172.36C299.47,176.06 294.33,177.95 290.12,181.18C286.29,184.06 282.73,187.37 278.41,189.54C273.66,191.92 269.67,195.46 265.8,199.04C264.85,198.74 263.9,198.43 262.96,198.13C262.63,197.72 261.99,196.9 261.66,196.49C265.61,191.86 270.02,187.65 274.08,183.12C275.53,181.59 276.93,179.92 278.77,178.85C280.54,178.47 282.36,178.95 284.14,179.12C287.67,174.49 292.58,171.39 297.5,168.45C301.42,166.4 299.88,161.43 299.17,158.01Z" style="fill:rgb(132,109,72);fill-rule:nonzero;"/>
        </g>
        <g transform="matrix(1,0,0,1,40,11.5)">
            <path d="M360.6,160.44C363.95,159.18 367.63,159.61 371.13,159.63C371.75,162.76 373.48,165.47 374.99,168.23C375.75,175.07 375.37,181.98 375.17,188.84C368.39,188.89 361.61,188.91 354.83,188.88C354.58,182.25 354.34,175.59 354.95,168.98C356.48,165.94 358.13,162.83 360.6,160.44Z" style="fill:rgb(1,0,1);fill-rule:nonzero;"/>
        </g>
        <g transform="matrix(1,0,0,1,40,11.5)">
            <path d="M101.92,166.64C101.679,169.33 104.68,178.9 105.86,181.81C107.01,183.37 108.27,184.85 109.62,186.26C110.39,187.04 111.18,187.83 111.97,188.61C112.6,186.41 113.18,184.2 114,182.06C114.33,181.73 114.97,181.06 115.3,180.73C115.59,180.46 116.17,179.91 116.46,179.63C116.51,184.75 116.88,189.97 119.28,194.59C121.63,194.7 123.98,194.82 126.33,194.96C126.44,196.19 125.506,197.395 124.516,197.324C122.697,197.194 118.51,196.99 115.42,194.18C112.26,198.61 110.87,203.9 109.79,209.14C107.47,215.54 100.18,228.45 100.08,228.87C104.78,230.85 108.9,234.44 113.95,235.42C119.34,234.81 126.837,236.123 129.96,236.93C131.35,237.289 132.619,238.826 132.69,240.26C132.815,242.787 133.022,249.373 130.71,252.09C128.398,254.807 120.577,256.592 118.82,256.56C119.06,259.41 119.923,262.342 119.63,265.13C119.337,267.918 117.18,281.3 117.87,285.24C119.61,291.15 119.08,297.37 117.47,303.24C115.06,312.58 119.22,321.72 119.04,331.06C119.08,335.15 121.16,338.79 123.28,342.16C122.37,342.54 121.48,342.93 120.56,343.27C120.32,343.24 119.85,343.16 119.61,343.12C119.64,341.87 119.67,340.62 119.63,339.38C116.68,333.57 111.54,332.23 110.6,332.72C106.99,333.89 103.27,334.67 99.55,335.36C99.07,335.44 98.12,335.6 97.64,335.69C97.36,337.37 97.09,339.05 96.82,340.74C96.184,340.462 94.917,339.898 94.283,339.616C94.034,340.058 93.552,340.932 93.316,341.37C92.95,340.16 92.554,338.97 92.118,337.79C91.098,334.89 89.534,332.12 89.237,329.01C89.237,329.001 89.237,328.991 89.237,328.981C89.227,327.455 88.106,318.189 88.148,316.769C87.423,314.153 88.156,311.452 87.652,308.811C88.387,300.08 87.676,291.286 85.544,282.642C85.49,282.401 85.436,282.161 85.383,281.921C83.576,283.172 81.591,284.46 79.79,285.7C79.83,286.38 79.87,287.06 79.92,287.74C77.92,285.86 72.36,284.91 71.64,286.26C65.25,287.16 59.2,284.85 53.06,283.57C48.07,282.4 43.03,284.6 38.04,283.35C33.3,283.15 28.64,284.15 24.04,285.16C16.79,286.77 9.29,286.42 1.93,285.88C6.19,283.28 11.36,284.58 16.05,284.44C21.25,284.7 26.34,283.48 31.37,282.33C29.91,280.54 28.41,278.79 26.89,277.06C26.35,276.45 25.82,275.84 25.28,275.23C24.49,274.32 23.7,273.41 22.94,272.47C18.56,266.76 17.12,259.33 18.15,252.29C18.646,248.898 18.755,249.234 20.57,245.74C22.58,241.87 25.11,238.3 27.21,234.48C28.12,232.64 28.96,230.77 29.89,228.95C30.81,227.16 31.78,225.4 32.62,223.57C33.91,219.33 34.69,214.96 35.88,210.69C38.48,202.55 42.97,195.16 48.63,188.79C48.63,188.79 53.25,184.22 55.09,181.99C55.9,181.06 56.7,180.11 57.54,179.21C62.08,175.46 65.83,170.33 71.68,168.54C77.4,166.43 82.7,163.03 88.92,162.52C92.07,161.78 95.22,161.06 98.32,160.15C99.51,162.31 100.7,164.48 101.92,166.64ZM106.45,206.52C103.79,212.5 101.936,221.955 98.35,224.41C101.926,221.998 103.79,212.5 106.45,206.52ZM106.45,206.52C106.59,206.25 106.86,205.71 106.99,205.44C108.47,202.42 109.71,199.28 110.83,196.11C109.5,191.44 103.792,188.056 102.02,185.71C101.196,184.618 100.874,184.389 100.17,180.938C99.152,175.948 98.222,166.74 97.85,164.11C97.19,164.02 95.88,163.83 95.22,163.74C90.9,168.3 83.94,167.43 79.36,171.47C82.66,173.73 87.19,175.14 88.71,179.21C91.89,186.75 92.42,195.21 91.17,203.23C90.41,208.11 88.37,212.85 88.79,217.86C91.01,220.4 94.83,219.94 97.87,220.5C100.54,215.83 101.05,209 106.45,206.52ZM33,233.97C27.92,242.42 23.38,251.61 23.28,261.7C23.6,263.01 23.97,264.31 24.38,265.6C24.97,266.75 25.62,267.88 26.32,268.98C33.81,274.93 42.46,279.18 51.47,282.28C54.37,283.25 57.32,281.95 60.14,281.32C66.51,279.47 73.32,280.54 79.65,278.49C84.07,277.09 91.54,275.107 93.33,277.08C95.12,279.053 91.65,285.98 90.39,290.33C90.256,290.747 90.149,291.165 90.064,291.584C90.208,294.166 90.351,296.752 90.411,299.339C90.621,300.42 90.856,301.496 91.06,302.56C92.04,307.45 91.864,312.457 92.17,317.407C92.186,317.458 92.201,317.509 92.217,317.56C93.415,322.81 95.038,327.98 95.88,333.31C100.91,331.7 106.23,331.02 111.12,329C111.91,327.83 112.1,326.39 112.25,325.03C113.08,314.19 110.94,303.15 113.5,292.45C114.99,286.23 113.81,279.78 114.94,273.51C116.6,267.99 112.59,263.32 110.61,258.51C109.34,256.24 108.51,252.91 105.5,252.47C95.21,250.79 84.7,250.89 74.37,249.61C63.59,247.04 49.27,242.71 48.86,236.94C43.92,235.44 39.1,233.58 34.35,231.53C33.9,232.34 33.45,233.16 33,233.97ZM81.22,178.71C77.49,178.08 73.56,176.66 69.81,177.82C66.52,179.69 65.08,183.5 63.67,186.81C61.22,198.35 58.19,210.55 61.84,222.18C63.16,227.27 66.79,231.51 67.43,236.79C72.48,239.64 76.912,243.256 82.302,245.486C87.052,247.436 102.01,243.77 105.1,244.19C105.19,242.48 105.28,240.77 105.36,239.06C100.66,236.05 85.73,226.55 82.32,226.46C82.33,226.14 82.35,225.5 82.36,225.19C81.02,215.44 83.35,205.83 85.14,196.3C86.6,190.12 83.37,184.3 81.22,178.71Z" style="fill:rgb(59,50,34);"/>
        </g>
        <g transform="matrix(1,0,0,1,40,11.5)">
            <path d="M124.14,159.42C125.11,161.92 125.79,164.51 126.38,167.13C126.75,167.14 127.48,167.17 127.85,167.18C127.87,165.01 127.375,161.788 127.92,160.68C128.391,159.722 130.628,160.137 131.12,160.53C131.612,160.923 130.94,162.41 130.87,163.04C130.75,164.32 130.62,165.6 130.48,166.88C134.27,168.34 138.07,170.06 142.14,170.5C146.02,170.35 149.48,168.27 153.06,166.97C155.9,171.46 155.37,177 157.16,181.86C156.09,181.33 155,180.84 153.91,180.34C153.32,182.13 152.73,183.93 152.12,185.72C149.53,185.91 146.95,186.19 144.38,186.59C143.47,184.54 142.44,182.56 141.48,180.55C140.87,180.44 139.66,180.23 139.06,180.12C139.43,183.56 140.38,186.95 140.38,190.42C138.92,192.28 136.76,193.38 134.72,194.49C133.83,194.86 132.94,195.2 132.03,195.52C130.98,193.85 129.93,192.18 128.85,190.54C128.64,190.92 128.22,191.7 128.01,192.09C127.46,193.05 126.9,194 126.33,194.96C123.98,194.82 121.63,194.7 119.28,194.59C116.88,189.97 116.51,184.75 116.46,179.63C116.17,179.91 115.59,180.46 115.3,180.73C114.97,181.06 114.33,181.73 114,182.06C113.18,184.2 112.6,186.41 111.97,188.61C111.18,187.83 110.39,187.04 109.62,186.26C108.27,184.85 107.01,183.37 105.86,181.81C104.68,178.9 101.59,170.32 101.92,166.64C103.55,164.9 105.08,162.97 107.18,161.76C111.98,162.88 116.85,164.7 121.76,162.91C122.21,166.33 123.5,169.59 125.65,172.32C124.77,168.07 123.71,163.79 124.14,159.42Z" style="fill:rgb(221,206,173);fill-rule:nonzero;"/>
        </g>
        <g transform="matrix(1,0,0,1,40,11.5)">
            <path d="M217.53,172.34C218.64,170.85 228.52,161.7 233.51,160.3C234.38,163.25 235.39,166.19 237.22,168.7C238.58,171.1 239.63,173.67 240.66,176.23C237.07,178.06 227.57,182.79 226.8,184.33C226.07,183.67 225.34,183.02 224.62,182.35C221.55,179.58 219.03,176.23 217.53,172.34Z" style="fill:rgb(233,219,206);fill-rule:nonzero;"/>
        </g>
        <g transform="matrix(1,0,0,1,40,11.5)">
            <path d="M79.36,171.47C83.94,167.43 90.9,168.3 95.22,163.74C95.88,163.83 97.19,164.02 97.85,164.11C98.48,168.56 98.93,173.03 99.64,177.46C100.11,180.29 100.82,183.1 102.02,185.71C105.3,188.87 109.5,191.44 110.83,196.11C109.71,199.28 108.47,202.42 106.99,205.44C106.86,205.71 100.813,218.61 97.87,220.5C95.218,222.203 91.01,220.4 88.79,217.86C88.37,212.85 90.41,208.11 91.17,203.23C92.42,195.21 91.89,186.75 88.71,179.21C87.19,175.14 82.66,173.73 79.36,171.47Z" style="fill:rgb(194,31,138);fill-rule:nonzero;"/>
        </g>
        <g transform="matrix(1,0,0,1,40,11.5)">
            <path d="M374.99,168.23C375.59,170.06 375.8,171.99 375.86,173.91C375.95,180.75 376.38,187.78 373.97,194.32C367.99,194.33 362.01,194.35 356.04,194.33C353.34,186.64 354.27,178.4 354.33,170.43C354.48,170.06 354.79,169.34 354.95,168.98C354.34,175.59 354.58,182.25 354.83,188.88C361.61,188.91 368.39,188.89 375.17,188.84C375.37,181.98 375.75,175.07 374.99,168.23Z" style="fill:rgb(61,30,28);fill-rule:nonzero;"/>
        </g>
        <g transform="matrix(1,0,0,1,40,11.5)">
            <path d="M237.22,168.7C239.51,170.84 241.82,173.04 243.43,175.77C243.62,177.97 243.66,180.19 243.73,182.41C239.07,185.35 234.77,189.12 229.28,190.44C228.36,189.53 227.45,188.62 226.55,187.71C225.97,185.9 225.35,184.1 224.62,182.35C225.34,183.02 226.07,183.67 226.8,184.33C227.57,182.79 237.07,178.06 240.66,176.23C239.63,173.67 238.58,171.1 237.22,168.7Z" style="fill:rgb(200,174,144);fill-rule:nonzero;"/>
        </g>
        <g transform="matrix(1,0,0,1,40,11.5)">
            <path d="M243.43,175.77C245.45,178.94 247.21,182.27 249.43,185.31C245.63,190.48 240.77,195.62 234.06,196.48C232.69,194.3 231.12,192.24 229.28,190.44C234.77,189.12 239.07,185.35 243.73,182.41C243.66,180.19 243.62,177.97 243.43,175.77Z" style="fill:rgb(152,128,104);fill-rule:nonzero;"/>
        </g>
        <g transform="matrix(1,0,0,1,40,11.5)">
            <path d="M69.81,177.82C73.56,176.66 78.784,175.774 81.22,178.71C83.775,181.79 86.6,190.12 85.14,196.3C83.35,205.83 81.02,215.44 82.36,225.19C82.35,225.5 82.33,226.14 82.32,226.46C85.73,226.55 100.66,236.05 105.36,239.06C105.28,240.77 105.19,242.48 105.1,244.19C102.01,243.77 87,247.83 82.25,245.88C76.86,243.65 70.832,240.74 67.43,236.79C64.028,232.84 63.16,227.27 61.84,222.18C58.19,210.55 61.22,198.35 63.67,186.81C65.08,183.5 66.52,179.69 69.81,177.82Z" style="fill:rgb(107,110,251);fill-rule:nonzero;"/>
        </g>
        <g transform="matrix(1,0,0,1,40,11.5)">
            <path d="M207.23,189.27C211.25,186.76 215.24,184.2 219.1,181.45C220.07,182.38 221.04,183.3 221.98,184.27C221.72,187.76 222.92,193.76 218.32,194.74C213.41,195.81 210.24,200.05 206.22,202.7C205.32,201.83 204.42,200.96 203.55,200.07C203.27,199.77 202.71,199.16 202.43,198.86C200.6,197.06 203.73,191.44 207.23,189.27Z" style="fill:rgb(219,215,180);fill-rule:nonzero;"/>
        </g>
        <g transform="matrix(1,0,0,1,40,11.5)">
            <path d="M221.98,184.27C223.39,185.96 224.68,187.74 225.89,189.58C226.42,190.75 226.96,191.91 227.57,193.04C226.75,198.49 221.4,200.62 217.43,203.43C215.67,204.54 213.96,205.82 211.95,206.42C209.8,206.4 207.9,205.17 206.08,204.14C205.15,202.84 204.38,201.43 203.55,200.07C204.42,200.96 205.32,201.83 206.22,202.7C210.24,200.05 213.41,195.81 218.32,194.74C222.92,193.76 221.72,187.76 221.98,184.27Z" style="fill:rgb(182,155,130);fill-rule:nonzero;"/>
        </g>
        <g transform="matrix(1,0,0,1,40,11.5)">
            <path d="M144.38,186.59C146.95,186.19 149.53,185.91 152.12,185.72C150.66,186.2 149.2,186.68 147.74,187.16C147.98,190.77 148.11,194.39 148.14,198C146.74,198.04 144.387,199.447 143.95,198.12C143.323,196.218 146.34,190.29 144.38,186.59Z" style="fill:rgb(125,102,75);fill-rule:nonzero;"/>
        </g>
        <g transform="matrix(1,0,0,1,40,11.5)">
            <path d="M249.43,185.31C250.41,186.58 251.47,187.8 252.49,189.05C250.67,191.94 248.9,195.02 246.05,197.02C243.25,198.94 239.85,199.64 236.64,200.57C235.75,199.22 234.92,197.84 234.06,196.48C240.77,195.62 245.63,190.48 249.43,185.31Z" style="fill:rgb(128,99,53);fill-rule:nonzero;"/>
        </g>
        <g transform="matrix(1,0,0,1,40,11.5)">
            <path d="M252.49,189.05C256.24,193.89 259.79,198.96 262.33,204.55C257.21,207.16 252.61,210.89 247.12,212.71C242.89,209.39 239.79,204.88 236.64,200.57C239.85,199.64 243.25,198.94 246.05,197.02C248.9,195.02 250.67,191.94 252.49,189.05Z" style="fill:rgb(107,57,3);fill-rule:nonzero;"/>
        </g>
        <g transform="matrix(1,0,0,1,40,11.5)">
            <path d="M126.222,195.089C126.432,194.699 127.882,190.468 128.85,190.54C129.818,190.612 130.98,193.85 132.03,195.52C130.51,195.92 125.992,196.589 126.222,195.089Z" style="fill:rgb(27,17,4);fill-rule:nonzero;"/>
        </g>
        <g transform="matrix(1,0,0,1,40,11.5)">
            <path d="M227.57,193.04C228.68,194.61 229.95,196.06 231.18,197.55C227.72,205.03 219.66,208.4 213.6,213.39C211.31,210.13 208.42,207.36 206.08,204.14C207.9,205.17 209.8,206.4 211.95,206.42C213.96,205.82 215.67,204.54 217.43,203.43C221.4,200.62 226.75,198.49 227.57,193.04Z" style="fill:rgb(144,122,95);fill-rule:nonzero;"/>
        </g>
        <g transform="matrix(1,0,0,1,40,11.5)">
            <path d="M334.16,194.36C341.45,194.52 348.74,194.51 356.04,194.33C362.01,194.35 367.99,194.33 373.97,194.32C380.41,194.71 386.93,193.92 393.33,194.78C396.86,196.56 396.41,201.4 395.68,204.65C394,207.57 390.74,209.04 387.97,210.71C383.7,212.06 379.03,212.18 374.89,210.34C368.16,208.01 360.84,209.16 353.87,209.44C353.75,209.85 353.5,210.68 353.37,211.09C349.61,211.84 345.64,211.85 342.02,210.45C339.36,209.21 336.75,207.87 334.06,206.69C333.95,202.58 333.98,198.47 334.16,194.36Z" style="fill:rgb(119,103,102);fill-rule:nonzero;"/>
        </g>
        <g transform="matrix(1,0,0,1,40,11.5)">
            <path d="M334.76,195.87C349.18,196.2 363.59,195.21 378.01,195.87C382.93,196.15 387.88,195.46 392.77,196.08C396.71,197.77 396.03,203.75 393.13,206.17C391.16,208.56 387.83,208.35 385.04,208.42C371.33,208.3 357.63,208.38 343.93,208.39C340.72,208.51 337.77,207.17 334.91,205.93C334.66,202.58 334.61,199.22 334.76,195.87Z" style="fill-rule:nonzero;"/>
        </g>
        <g transform="matrix(1,0,0,1,40,11.5)">
            <path d="M231.18,197.55C232.35,199 233.44,200.53 234.45,202.11C229.24,208.2 222.69,213.04 215.24,216.03C214.7,215.14 214.15,214.26 213.6,213.39C219.66,208.4 227.72,205.03 231.18,197.55Z" style="fill:rgb(123,93,48);fill-rule:nonzero;"/>
        </g>
        <g transform="matrix(1,0,0,1,40,11.5)">
            <path d="M149.61,200.71C150.68,199.03 152.94,199.43 154.62,198.98C155.13,200.09 155.65,201.2 156.18,202.31C154.77,203.53 153.35,205.37 151.23,204.85C149.24,204.81 148.29,202.12 149.61,200.71Z" style="fill:rgb(123,92,52);fill-rule:nonzero;"/>
        </g>
        <g transform="matrix(1,0,0,1,40,11.5)">
            <path d="M187.2,212.1C189.23,206.08 195.37,203.46 200.23,200.14C201.24,201.48 202.25,202.81 203.22,204.18L203.71,204.92C202.42,207.04 201.51,209.7 199.17,210.9C196.39,212.38 193.44,213.52 190.68,215.02C189.68,214.31 188.69,213.58 187.73,212.84L187.2,212.1Z" style="fill:rgb(230,204,177);fill-rule:nonzero;"/>
        </g>
        <g transform="matrix(1,0,0,1,40,11.5)">
            <path d="M234.45,202.11C235.64,205.08 238.05,209.25 234.92,211.86C230.32,215.89 224.66,218.45 219.79,222.15C218.15,220.2 216.57,218.2 215.24,216.03C222.69,213.04 229.24,208.2 234.45,202.11Z" style="fill:rgb(107,60,7);fill-rule:nonzero;"/>
        </g>
        <g transform="matrix(1,0,0,1,40,11.5)">
            <path d="M203.71,204.92C204.01,205.37 204.6,206.26 204.89,206.71C203.94,209.38 203.26,212.25 201.56,214.58C199.44,217.32 196.12,218.66 193.1,220.14C191.37,217.66 189.47,215.31 187.73,212.84C188.69,213.58 189.68,214.31 190.68,215.02C193.44,213.52 196.39,212.38 199.17,210.9C201.51,209.7 202.42,207.04 203.71,204.92Z" style="fill:rgb(182,147,127);fill-rule:nonzero;"/>
        </g>
        <g transform="matrix(1,0,0,1,40,11.5)">
            <path d="M204.89,206.71C205.16,207.11 205.69,207.93 205.96,208.34C206.68,210.2 207.64,212.35 206.46,214.25C204.4,219.09 199.13,220.93 194.58,222.61C194.11,221.77 193.62,220.95 193.1,220.14C196.12,218.66 199.44,217.32 201.56,214.58C203.26,212.25 203.94,209.38 204.89,206.71Z" style="fill:rgb(146,123,100);fill-rule:nonzero;"/>
        </g>
        <g transform="matrix(1,0,0,1,40,11.5)">
            <path d="M166.1,208.25C166.7,208.53 167.92,209.08 168.52,209.36C167.58,211.95 166.9,214.85 164.8,216.79C162.23,219.09 158.86,220.16 155.73,221.43C155.28,219.92 154.26,218.31 154.7,216.7C156.94,213.96 159.88,211.92 162.43,209.48C163.65,209.07 164.87,208.66 166.1,208.25Z" style="fill:rgb(163,136,116);fill-rule:nonzero;"/>
        </g>
        <g transform="matrix(1,0,0,1,40,11.5)">
            <path d="M205.96,208.34C207.7,211.02 209.73,213.51 211.55,216.14C206.29,219.16 200.78,221.92 196.37,226.18C195.75,225 195.19,223.79 194.58,222.61C199.13,220.93 204.4,219.09 206.46,214.25C207.64,212.35 206.68,210.2 205.96,208.34Z" style="fill:rgb(110,88,57);fill-rule:nonzero;"/>
        </g>
        <g transform="matrix(1,0,0,1,40,11.5)">
            <path d="M168.52,209.36C169.31,210.2 170.05,211.08 170.76,211.99C168.63,218.32 161.96,220.43 157,223.96C156.55,223.13 156.12,222.29 155.73,221.43C158.86,220.16 162.23,219.09 164.8,216.79C166.9,214.85 167.58,211.95 168.52,209.36Z" style="fill:rgb(127,99,60);fill-rule:nonzero;"/>
        </g>
        <g transform="matrix(1,0,0,1,40,11.5)">
            <path d="M338.08,228.93C339.04,222.7 340.45,216.55 342.02,210.45C345.64,211.85 349.61,211.84 353.37,211.09C354.41,219.31 350.47,226.86 349.54,234.87C347.97,246.64 342.72,257.53 340.97,269.26C340.12,275.41 338.25,281.33 336.72,287.33C342.74,288.56 348.9,288.21 355,288.18C367.18,288.03 379.38,288.52 391.56,287.91C390.52,279.98 388.26,272.27 386.29,264.53C381.6,250.78 380.5,236.08 375.53,222.41C374.02,218.56 374.39,214.35 374.89,210.34C379.03,212.18 383.7,212.06 387.97,210.71C389.43,215.47 390.87,220.24 391.64,225.17C393.01,233.96 395.81,242.43 397.51,251.14C398.72,257.98 401.53,264.41 402.67,271.27C404.17,278.4 404.78,285.72 407.15,292.65C410.01,301.35 412.25,310.24 413.58,319.31C416.87,333.05 420.04,346.82 423.41,360.54C424.19,363.46 424.62,366.46 424.84,369.47C420.96,369.64 417.08,369.67 413.2,369.65C411.29,363.55 409.87,357.3 408.04,351.17C406.04,343.13 403.26,335.27 402.05,327.04C399.73,315.29 395.65,303.99 393.1,292.29C373.68,292.82 354.25,292.56 334.83,292.42C333.36,298.43 331.83,304.42 330.48,310.46C328.08,323.16 323.98,335.46 320.84,347.99C319.04,355.18 318.21,362.63 315.44,369.56C312.01,369.62 308.58,369.63 305.16,369.52C305.69,363.11 307.51,356.92 308.82,350.66C311.31,341.98 312.94,333.1 315.54,324.46C317.94,316.04 318.35,307.19 321.04,298.85C322.8,293.05 324.44,287.22 325.53,281.26C328.11,270.42 330.68,259.57 332.86,248.65C334.27,241.99 336.75,235.6 338.08,228.93Z" style="fill:rgb(1,1,1);fill-rule:nonzero;"/>
        </g>
        <g transform="matrix(1,0,0,1,40,11.5)">
            <path d="M170.76,211.99C171.43,214.84 171.93,217.73 172.63,220.58C171.96,221.09 171.31,221.62 170.66,222.16C170.17,221.55 169.17,220.31 168.68,219.69C165.91,221.84 163.32,224.36 160.05,225.71C158.95,225.28 157.96,224.64 157,223.96C161.96,220.43 168.63,218.32 170.76,211.99Z" style="fill:rgb(109,64,15);fill-rule:nonzero;"/>
        </g>
        <g transform="matrix(1,0,0,1,40,11.5)">
            <path d="M184.19,214.88C185.835,216.395 191.37,222.77 192.06,228.1C187.21,227.23 183.502,221.213 182.19,219.01C181.408,217.696 183.065,213.844 184.19,214.88Z" style="fill:rgb(146,122,110);fill-rule:nonzero;"/>
        </g>
        <g transform="matrix(1,0,0,1,40,11.5)">
            <path d="M211.55,216.14C212.55,217.74 213.38,219.44 214.19,221.15C211.28,222.95 208.5,225.04 206.56,227.91L206.11,228.49C202.68,229.54 198.5,229.61 196.37,226.18C200.78,221.92 206.29,219.16 211.55,216.14Z" style="fill:rgb(104,57,8);fill-rule:nonzero;"/>
        </g>
        <g transform="matrix(1,0,0,1,40,11.5)">
            <path d="M172.63,220.58C174.45,219.24 176.34,217.98 178.22,216.72C178.59,217.24 179.33,218.28 179.7,218.81C179.31,221.08 179.91,224.07 177.85,225.66C175.56,227.51 173.18,229.29 171.4,231.67C167.88,231.98 164.34,231.69 160.84,231.3C163.41,227.56 167.38,225.19 170.66,222.16C171.31,221.62 171.96,221.09 172.63,220.58Z" style="fill:rgb(163,142,118);fill-rule:nonzero;"/>
        </g>
        <g transform="matrix(1,0,0,1,40,11.5)">
            <path d="M179.7,218.81C180.89,220.53 181.99,222.31 183.13,224.07C183.11,224.75 183.08,226.09 183.06,226.77C179.48,229.03 175.72,231.28 171.4,231.67C173.18,229.29 175.56,227.51 177.85,225.66C179.91,224.07 179.31,221.08 179.7,218.81Z" style="fill:rgb(130,106,70);fill-rule:nonzero;"/>
        </g>
        <g transform="matrix(1,0,0,1,40,11.5)">
            <path d="M183.13,224.07C186.03,228.59 189.87,232.47 192.12,237.41C188.92,237.09 185.75,236.33 182.53,236.44C181.66,237.21 180.84,238.03 180.07,238.9C175.58,238.35 171.15,237.48 166.73,236.54C164.31,235.64 161.9,234.69 159.47,233.82C159.92,232.97 160.36,232.12 160.84,231.3C164.34,231.69 167.88,231.98 171.4,231.67C175.72,231.28 179.48,229.03 183.06,226.77C183.08,226.09 183.11,224.75 183.13,224.07Z" style="fill:rgb(94,54,8);fill-rule:nonzero;"/>
        </g>
        <g transform="matrix(1,0,0,1,40,11.5)">
            <path d="M34.35,231.53C39.1,233.58 43.92,235.44 48.86,236.94C49.27,242.71 63.59,247.04 74.37,249.61C84.7,250.89 95.21,250.79 105.5,252.47C108.51,252.91 109.34,256.24 110.61,258.51C112.59,263.32 116.6,267.99 114.94,273.51C113.81,279.78 114.99,286.23 113.5,292.45C110.94,303.15 113.08,314.19 112.25,325.03C112.1,326.39 111.91,327.83 111.12,329C106.23,331.02 100.91,331.7 95.88,333.31C95.03,327.98 93.39,322.81 92.18,317.56C91.86,312.56 92.05,307.5 91.06,302.56C90.29,298.55 89.09,294.37 90.39,290.33C91.65,285.98 92.92,281.61 93.33,277.08C88.72,276.74 84.07,277.09 79.65,278.49C73.32,280.54 66.51,279.47 60.14,281.32C57.32,281.95 54.37,283.25 51.47,282.28C42.46,279.18 33.81,274.93 26.32,268.98C25.62,267.88 24.97,266.75 24.38,265.6C23.97,264.31 23.6,263.01 23.28,261.7C23.38,251.61 27.92,242.42 33,233.97C33.45,233.16 33.9,232.34 34.35,231.53Z" style="fill:rgb(107,109,252);fill-rule:nonzero;"/>
        </g>
        <g transform="matrix(1,0,0,1,40,11.5)">
            <path d="M112.62,241.22C115.258,240.313 124.945,239.008 127.23,240.11C129.515,241.212 126.52,245.24 126.33,247.83C126.32,249.06 127.599,251.716 126.38,251.53C123.892,251.15 115.89,248.58 111.4,245.55C111.47,243.85 111.202,241.707 112.62,241.22Z" style="fill:rgb(246,200,198);fill-rule:nonzero;"/>
        </g>
        <g transform="matrix(1,0,0,1,40,11.5)">
            <path d="M24.04,285.16C28.64,284.15 33.3,283.15 38.04,283.35C43.03,284.6 48.07,282.4 53.06,283.57C59.2,284.85 65.25,287.16 71.64,286.26C72.36,284.91 77.92,285.86 79.92,287.74C81.42,289.36 83.42,290.87 83.96,293.12C83.76,295.73 82.57,298.13 81.67,300.55C76.04,301.91 70.26,302.4 64.48,302.42C65.97,301.4 67.52,300.47 69.04,299.5C65.73,299.89 62.57,300.97 59.58,302.42C55.96,304.28 51.74,303.02 47.96,304.17C46.5,306.05 46.77,308.69 46.57,310.95C46.59,318.97 46.78,326.98 46.54,335C46.31,339.52 47.36,343.97 49.22,348.07C47.46,351.22 45.45,354.23 43.24,357.08C41.41,353.88 38.44,350.64 39.1,346.69C39.83,342.15 40.66,337.6 40.43,332.99C40.07,323.27 40.76,313.54 40.03,303.83C34.78,303.68 29.19,304.32 24.44,301.57C19.06,298.35 12.58,300.81 6.89,298.97C2.5,296.56 2.23,290.92 1.28,286.58L1.93,285.88C9.29,286.42 16.79,286.77 24.04,285.16Z" style="fill:rgb(0,2,99);fill-rule:nonzero;"/>
        </g>
        <g transform="matrix(1,0,0,1,40,11.5)">
            <path d="M15.38,353.42C18.82,352.51 22.09,351.13 25.28,349.56C29.04,347.77 33.47,347.35 36.84,344.79C38.48,341.47 38.11,337.6 38.24,334C38.05,324.75 38.53,315.48 37.88,306.23C33.15,306.37 28.41,306.43 23.68,306.06C22.24,304.57 21.32,301.93 18.92,301.92C14.96,301.57 11,302.3 7.03,302.08C4.02,301.28 1.76,299.01 0,296.55L0,287.97C0.32,287.62 0.96,286.93 1.28,286.58C2.23,290.92 2.5,296.56 6.89,298.97C12.58,300.81 19.06,298.35 24.44,301.57C29.19,304.32 34.78,303.68 40.03,303.83C40.76,313.54 40.07,323.27 40.43,332.99C40.66,337.6 39.83,342.15 39.1,346.69C38.44,350.64 41.41,353.88 43.24,357.08C45.45,354.23 47.46,351.22 49.22,348.07C47.36,343.97 46.31,339.52 46.54,335C46.78,326.98 46.59,318.97 46.57,310.95C46.77,308.69 46.5,306.05 47.96,304.17C51.74,303.02 55.96,304.28 59.58,302.42C62.57,300.97 65.73,299.89 69.04,299.5C67.52,300.47 67.119,301.698 65.629,302.718C64.789,304.008 64.428,304.285 63.698,305.645C59.568,305.555 54.141,305.654 49.82,305.71C49.49,307.29 49.11,308.87 48.86,310.48C48.62,319 48.88,327.52 48.73,336.05C48.94,338.98 48.35,343 51.45,344.65C59.35,349.54 67.84,353.36 76.52,356.63C77.07,359.92 78.14,363.26 77.62,366.63C76.44,370 70.29,372.68 68.42,368.56C66.07,365.36 67.82,360.09 63.93,358.03C59.1,355.07 53.61,353.41 48.15,352.09C47.5,353.78 46.75,355.45 46.41,357.25C46.81,359.59 48.17,361.63 48.67,363.95C48.13,366.52 46.51,368.9 44.43,370.5C41.17,371.47 39.3,368.01 37.39,366.06C38.05,363.08 39.19,360.21 39.61,357.18C39.34,355.51 38.59,353.97 38.02,352.39C35.23,353.22 32.45,354.09 29.69,355.06C27.02,356 24.38,357.05 21.76,358.14C20.6,358.61 19.44,359.09 18.27,359.56C18.14,362.27 18.05,364.98 18.03,367.69C15,370.25 11.17,371.16 7.33,370.04C7.27,367.52 7.18,364.99 7.28,362.47C7.52,360.53 7.53,358.4 8.66,356.72C10.37,354.78 13.03,354.22 15.38,353.42Z" style="fill:rgb(4,6,71);"/>
        </g>
        <g transform="matrix(1,0,0,1,40,11.5)">
            <path d="M573.07,290.37C572.61,292.16 564.55,303.37 561.67,307.54C557.39,314.86 551.77,321.3 547.71,328.75C545.91,332.27 541.64,334.66 541.67,338.96C541.56,349.15 541.82,359.36 541.59,369.56C538.2,369.65 534.82,369.66 531.43,369.56C531.25,359.69 531.43,349.82 531.39,339.95C531.66,336.34 529.18,333.48 527.4,330.61C524.1,325.33 519.69,320.82 516.83,315.25C513.59,309.03 507.59,304.73 504.8,298.24C503.69,295.85 502.51,293.51 501.22,291.23C505.02,291.35 508.83,291.02 512.61,291.44C516.01,292.74 516.45,296.91 518.43,299.54C521.9,303.74 525.33,308.01 528.22,312.63C530.53,316.86 532.86,321.28 536.78,324.26C537.14,323.78 537.86,322.82 538.22,322.33C539.25,320.95 540.28,319.58 541.32,318.2C545.39,313.17 548.28,307.32 552.26,302.25C555.06,299.79 559.68,291.92 560.23,291.22C564.51,291.03 568.79,290.66 573.07,290.37Z"/>
        </g>
        <g transform="matrix(1,0,0,1,40,11.5)">
            <path d="M433.3,291.28C446.55,291.32 459.8,291.34 473.04,291.26C477.53,291.06 481.66,293.32 485.3,295.71C488.35,298.89 491.02,302.71 492.26,306.98C492.66,311.25 492.86,315.64 492.08,319.87C490.25,324.04 488.07,328.63 483.78,330.77C481.69,332.19 479.09,332.19 476.76,332.97C474.35,334.98 476.13,338.29 478.08,339.92C480.77,342.13 483.86,344.05 485.58,347.19C488.66,352.7 492.02,358.06 495.79,363.14C497.11,364.82 497.64,366.89 498.05,368.95C494.28,369.83 490.39,369.75 486.56,369.57C483.64,361.97 477.29,356.35 473.98,348.96C472.22,344.99 469.12,341.88 466.31,338.67C464.3,336.76 461.98,334.62 459.05,334.61C454.43,334.51 449.77,334.26 445.19,334.87C443.19,336.26 443.73,338.88 443.58,340.97C443.64,350.52 443.63,360.06 443.62,369.61C440.2,369.65 436.79,369.65 433.38,369.65C432.83,358.44 433.25,347.22 433.12,336.01C433.25,321.1 432.87,306.18 433.3,291.28ZM445.23,300.89C443.45,301.99 443.69,304.16 443.63,305.97C443.69,312.39 443.53,318.82 443.87,325.23C451.53,325.75 459.21,325.22 466.88,325.56C469.11,325.56 471.62,326.08 473.53,324.57C476.48,322.54 479.78,320.7 481.87,317.71C483.58,312.82 481.93,307.25 478.64,303.39C474.33,299.64 468.29,300.33 463,300.48C457.08,300.81 451.08,299.74 445.23,300.89Z" style="fill:rgb(1,1,1);"/>
        </g>
        <g transform="matrix(1,0,0,1,40,11.5)">
            <path d="M595.56,291.36C599.48,291.23 603.41,291.25 607.34,291.4C609.24,295.53 611.72,299.41 613.01,303.8C615.05,310.42 618.29,316.58 620.71,323.06C623.25,332.78 628.51,341.45 631.92,350.84C634.02,357.02 636.94,362.87 639.07,369.03C635.53,369.78 631.91,369.76 628.33,369.6C624.9,361.71 621.51,353.78 619.02,345.54C614.61,345.35 610.23,345.84 605.85,346.16C598.66,345.72 591.36,345.07 584.2,345.91C581.76,348.73 581.3,352.61 579.94,355.97C578.19,360.42 577.64,365.64 574.33,369.28C570.9,370.19 567.3,369.58 563.87,369.07C564.98,365.57 566.43,362.19 568,358.88C570.35,354.03 571.44,348.68 573.92,343.89C577.79,336.3 579.58,327.88 583.4,320.27C588.23,310.94 590.03,300.36 595.56,291.36ZM603.11,304.71C602.55,302.78 601.99,300.85 601.4,298.93C600.9,300.86 600.43,302.78 599.96,304.72C595.61,314.69 592.08,324.99 588.03,335.08C587.81,337.71 591.25,336.94 592.96,337.3C599.6,337.17 606.28,337.66 612.9,337.02C614.87,337.24 615.43,335.05 614.4,333.7C611.61,328.89 611.64,323.04 608.81,318.26C606.33,314 604.86,309.28 603.11,304.71Z" style="fill:rgb(1,1,1);"/>
        </g>
        <g transform="matrix(1,0,0,1,40,11.5)">
            <path d="M648.22,291.27C659.81,291.44 671.41,291.19 683,291.38C694.14,291.89 704.5,302.5 702.68,313.92C702.22,320.08 695.93,323 693.45,328.18C698.69,331.04 704.39,334.93 705.69,341.18C706.07,345.86 706.28,350.71 705.16,355.32C704.58,358.51 701.91,360.63 699.57,362.6C694.12,367.06 687.16,370.17 680,369.69C669.43,369.56 658.86,369.69 648.29,369.61C648.19,343.5 648.33,317.38 648.22,291.27ZM660.03,332.24C658.27,336.27 658.82,340.72 658.8,345C658.82,350.22 658.56,355.47 659.34,360.66C665.86,361.58 672.47,361.15 679.04,361.23C684.45,361.23 690.39,359.05 693.1,354.07C698.72,346.08 692.57,333.33 682.9,332.55C675.28,332.32 667.64,332.84 660.03,332.24ZM659.83,300.44C658.1,305.46 658.97,310.81 658.76,316.01C658.85,318.49 658.45,321.15 659.57,323.47C661.53,324.51 663.83,324.21 665.98,324.28C670.67,324.16 675.36,324.35 680.05,324.21C684.63,323.98 689.54,321.59 691.08,316.99C693.52,312.96 691.83,308.17 689.44,304.58C687.84,301.61 684.12,300.77 681.03,300.58C673.96,300.45 666.89,300.64 659.83,300.44Z" style="fill:rgb(1,1,1);"/>
        </g>
        <g transform="matrix(1,0,0,1,40,11.5)">
            <path d="M721.2,291.27C724.74,291.27 728.28,291.25 731.82,291.2C731.93,301.13 731.63,311.06 731.86,320.99C731.65,322.82 733.08,324.61 735.02,324.22C745.02,324.3 755.03,324.17 765.03,324.27C766.82,324.2 769.96,324.34 770.13,321.92C770.52,311.56 770.13,301.17 770.22,290.8C773.75,290.76 777.26,291.08 780.78,291.31C780.61,317.41 780.75,343.51 780.7,369.61C777.22,369.67 773.75,369.66 770.28,369.61C770.14,357.3 770.49,344.99 770.11,332.69C757.58,332.47 745.04,332.61 732.52,332.5C731.83,334.23 731.76,336.11 731.75,337.96C731.78,348.51 731.89,359.07 731.74,369.62C728.26,369.66 724.77,369.65 721.3,369.6C721.22,343.49 721.38,317.38 721.2,291.27Z" style="fill:rgb(1,1,1);fill-rule:nonzero;"/>
        </g>
        <g transform="matrix(1,0,0,1,40,11.5)">
            <path d="M860.07,291.08C880.04,291.58 900.02,291.22 920,291.31L920,300.66C912.42,300.62 904.77,299.8 897.24,300.93C895.54,302.46 895.9,304.91 895.75,306.95C895.81,327.84 895.87,348.74 895.75,369.63C892.24,369.65 888.73,369.65 885.24,369.61C884.81,346.82 885.61,324 884.84,301.22C876.66,300.48 868.45,301.62 860.28,300.77C860.15,297.54 860.1,294.31 860.07,291.08Z" style="fill:rgb(1,1,1);fill-rule:nonzero;"/>
        </g>
        <g transform="matrix(1,0,0,1,40,11.5)">
            <path d="M821.05,291.54C824.31,291.13 827.65,291.15 830.92,291.6C835.55,297.27 837.1,304.73 840.92,310.91C843.14,316.5 844.02,322.61 846.95,327.94C851.66,336.78 853.45,346.82 858.37,355.55C860.75,359.74 862.47,364.29 862.97,369.11C859.48,369.69 855.94,369.75 852.42,369.65C849.94,361.46 846.93,353.4 842.79,345.92C837.32,344.82 831.83,346.32 826.36,346.27C820.47,345.49 814.2,344.99 808.61,347.42C804.21,354.16 802.39,362.15 799.51,369.59C795.98,369.73 792.43,369.7 788.94,369.16C789.18,361.79 794.19,356.05 796.52,349.34C798.99,342.87 801.42,336.37 803.99,329.94C805.61,323.83 809.55,318.63 810.6,312.33C813.74,305.27 816.73,297.98 821.05,291.54ZM826.07,300.6C824.48,303.52 820.36,317.76 818.28,321.41C815.58,325.91 814.03,331 811.23,335.45C813.92,337.88 817.66,337.28 821,337.34C827.42,337.15 833.89,337.72 840.29,336.79C838.81,331.7 836.29,327 834.88,321.88C831.41,315 829.79,307.38 826.07,300.6Z" style="fill:rgb(2,1,1);"/>
        </g>
        <g transform="matrix(1,0,0,1,40,11.5)">
            <path d="M110.6,332.72C111.54,332.23 116.68,333.57 119.63,339.38C114.47,342.28 108.64,340.25 103.78,337.79C105.96,335.98 108.17,334.19 110.6,332.72Z" style="fill:rgb(226,248,228);fill-rule:nonzero;"/>
        </g>
        <g transform="matrix(1,0,0,1,40,11.5)">
            <path d="M99.55,335.36C103.27,334.67 106.99,333.89 110.6,332.72C108.17,334.19 105.96,335.98 103.78,337.79C108.64,340.25 114.47,342.28 119.63,339.38C119.67,340.62 119.663,341.864 119.633,343.114C114.253,341.654 108.44,341.96 103.27,339.78C101.31,339.06 100.52,337.01 99.55,335.36Z" style="fill:rgb(185,201,222);fill-rule:nonzero;"/>
        </g>
        <g transform="matrix(1,0,0,1,40,11.5)">
            <path d="M97.64,335.69C98.12,335.6 99.07,335.44 99.55,335.36C100.52,337.01 101.31,339.06 103.27,339.78C108.44,341.96 114.23,341.66 119.61,343.12C119.85,343.16 120.32,343.24 120.56,343.27C121.48,342.93 122.37,342.54 123.28,342.16C126.41,346.77 130.85,350.42 133.5,355.39C134.89,357.86 134.77,360.79 135.03,363.54C134.13,361.62 130.93,360.21 130.21,361.47C125.9,362.31 121.54,363.03 117.14,362.97C115.16,362.44 113.17,361.95 111.21,361.34C104.66,358.84 98.04,356.09 92.7,351.42C92.89,348.07 93.16,344.72 93.29,341.37C93.53,340.93 94.02,340.05 94.27,339.61C94.9,339.89 97.36,337.37 97.64,335.69Z" style="fill:rgb(57,3,1);fill-rule:nonzero;"/>
        </g>
        <g transform="matrix(1,0,0,1,40,11.5)">
            <path d="M130.21,361.47C130.93,360.21 134.13,361.62 135.03,363.54C131.51,365.09 127.71,366.2 123.85,365.44C121.61,364.61 119.41,363.69 117.14,362.97C121.54,363.03 125.9,362.31 130.21,361.47Z" style="fill-rule:nonzero;"/>
        </g>
    </g>
</svg>
