<?xml version="1.0" encoding="UTF-8" standalone="no"?><!DOCTYPE svg PUBLIC "-//W3C//DTD SVG 1.1//EN" "http://www.w3.org/Graphics/SVG/1.1/DTD/svg11.dtd"><svg width="100%" height="100%" viewBox="0 0 450 450" version="1.1" xmlns="http://www.w3.org/2000/svg" xmlns:xlink="http://www.w3.org/1999/xlink" xml:space="preserve" xmlns:serif="http://www.serif.com/" style="fill-rule:evenodd;clip-rule:evenodd;stroke-linejoin:round;stroke-miterlimit:2;"><g><path d="M-1.903,149.831c0,156.424 0,157.244 2.026,157.757c1.419,0.307 1.824,1.025 1.419,2.255c-0.405,0.922 -1.317,1.435 -2.027,1.127c-1.215,-0.512 -1.418,10.866 -1.418,71.14l0,71.754l25.735,0c16.92,0 26.038,-0.41 26.444,-1.025c0.506,-0.82 1.114,-0.82 1.925,-0.103c0.912,0.821 63.83,1.128 201.521,1.128l200.305,0l0,-197.734c0,-196.812 0,-197.735 -2.026,-198.247c-2.635,-0.718 -2.635,-2.768 -0,-3.485c1.925,-0.513 2.026,-1.436 2.026,-31.162l0,-30.65l-92.706,0c-80.041,0 -92.705,0.205 -92.705,1.435c-0,0.82 -0.507,1.846 -1.014,2.153c-1.317,0.82 -4.255,-1.435 -3.444,-2.665c0.304,-0.513 -18.238,-0.923 -43.77,-0.923c-40.932,0 -44.377,0.103 -45.593,1.743c-1.317,1.743 -1.317,1.743 -1.418,-0c-0,-1.64 -4.863,-1.743 -87.64,-1.743l-87.64,0l0,157.245Zm65.35,-155.195c0.304,0.513 0.101,1.026 -0.405,1.026c-0.608,-0 -1.115,-0.513 -1.115,-1.026c0,-0.615 0.203,-1.025 0.405,-1.025c0.304,0 0.811,0.41 1.115,1.025Zm81.054,6.151c0.304,0.512 0.102,1.025 -0.405,1.025c-0.608,-0 -1.115,-0.513 -1.115,-1.025c0,-0.615 0.203,-1.025 0.406,-1.025c0.304,-0 0.81,0.41 1.114,1.025Zm171.43,0.717c-0.405,0.308 -0.709,0 -0.709,-0.717c-0,-0.718 0.304,-1.025 0.709,-0.718c0.304,0.41 0.304,1.025 -0,1.435Zm-183.385,3.076c-0.406,0.307 -0.709,-0 -0.709,-0.718c-0,-0.718 0.303,-1.025 0.709,-0.718c0.304,0.411 0.304,1.026 -0,1.436Zm139.109,-0.718c0,0.513 -0.709,1.025 -1.621,1.025c-0.811,0 -1.216,-0.512 -0.912,-1.025c0.304,-0.615 1.013,-1.025 1.621,-1.025c0.507,-0 0.912,0.41 0.912,1.025Zm85.107,1.025c0,0.513 -0.405,1.025 -1.013,1.025c-0.507,0 -1.013,-0.512 -1.013,-1.025c-0,-0.615 0.506,-1.025 1.013,-1.025c0.608,0 1.013,0.41 1.013,1.025Zm-38.805,7.586c-0.405,0.922 -1.114,1.64 -1.722,1.64c-1.723,-0 -2.432,-3.178 -0.912,-4.203c1.824,-1.128 3.445,0.512 2.634,2.563Zm-196.252,1.127c-0,0.82 -0.406,1.538 -0.912,1.538c-1.317,-0 -2.229,-1.64 -1.419,-2.46c1.115,-1.128 2.331,-0.615 2.331,0.922Zm279.637,-0.512c-0,0.512 -0.405,1.025 -1.013,1.025c-0.507,-0 -1.014,-0.513 -1.014,-1.025c0,-0.615 0.507,-1.025 1.014,-1.025c0.608,-0 1.013,0.41 1.013,1.025Zm-387.338,1.742c-0.405,0.308 -0.709,0 -0.709,-0.717c-0,-0.718 0.304,-1.025 0.709,-0.718c0.304,0.41 0.304,1.025 -0,1.435Zm170.518,-0.717c-0,0.512 -0.203,1.025 -0.406,1.025c-0.303,-0 -0.81,-0.513 -1.114,-1.025c-0.304,-0.615 -0.101,-1.025 0.405,-1.025c0.608,-0 1.115,0.41 1.115,1.025Zm13.779,5.842c-1.013,1.026 -1.925,-0.512 -1.013,-1.845c0.608,-1.127 0.81,-1.127 1.216,0c0.202,0.718 0.101,1.538 -0.203,1.845Zm-80.649,0.308c0,0.513 -0.405,1.025 -1.013,1.025c-0.507,0 -1.013,-0.512 -1.013,-1.025c-0,-0.615 0.506,-1.025 1.013,-1.025c0.608,-0 1.013,0.41 1.013,1.025Zm195.239,2.768c-0.405,0.307 -1.013,0.307 -1.418,-0c-0.304,-0.41 -0,-0.718 0.709,-0.718c0.709,0 1.013,0.308 0.709,0.718Zm27.356,1.025c-0.405,0.307 -1.013,0.307 -1.418,-0c-0.304,-0.41 -0,-0.718 0.709,-0.718c0.709,0 1.013,0.308 0.709,0.718Zm27.559,2.767c1.722,2.051 -1.317,4.408 -3.445,2.666c-1.216,-1.025 -1.317,-1.641 -0.405,-2.666c0.607,-0.82 1.519,-1.435 1.925,-1.435c0.405,0 1.317,0.615 1.925,1.435Zm10.942,-0.717c-0.405,0.307 -1.013,0.307 -1.418,-0c-0.304,-0.41 -0,-0.718 0.709,-0.718c0.709,0 1.013,0.308 0.709,0.718Zm70.315,1.64c-0.102,1.23 -1.52,0.923 -1.926,-0.41c-0.303,-0.615 0.102,-1.025 0.811,-0.82c0.608,0.307 1.115,0.82 1.115,1.23Zm-398.281,2.973c0,1.23 -3.85,1.025 -4.559,-0.205c-1.216,-1.948 0.507,-3.076 2.533,-1.743c1.114,0.615 2.026,1.538 2.026,1.948Zm94.124,0.41c-1.519,1.845 -2.228,1.332 -1.317,-1.025c0.304,-0.923 1.014,-1.333 1.621,-1.025c0.507,0.307 0.406,1.23 -0.304,2.05Zm88.248,-0.615c0,0.512 -0.405,1.025 -1.013,1.025c-0.506,-0 -1.013,-0.513 -1.013,-1.025c-0,-0.615 0.507,-1.025 1.013,-1.025c0.608,-0 1.013,0.41 1.013,1.025Zm138.806,3.075c-0,0.512 -0.203,1.025 -0.406,1.025c-0.304,-0 -0.81,-0.513 -1.114,-1.025c-0.304,-0.615 -0.101,-1.025 0.405,-1.025c0.608,-0 1.115,0.41 1.115,1.025Zm-239.414,4.818c-0.406,0.307 -0.709,-0 -0.709,-0.718c-0,-0.717 0.303,-1.025 0.709,-0.717c0.304,0.41 0.304,1.025 -0,1.435Zm18.946,5.535c-0.81,1.435 -3.445,1.127 -3.445,-0.41c0,-0.82 0.304,-1.743 0.71,-2.05c0.911,-0.923 3.444,1.332 2.735,2.46Zm130.295,0.922c-0,0.513 -0.405,1.026 -1.013,1.026c-0.507,-0 -1.014,-0.513 -1.014,-1.026c0,-0.615 0.507,-1.025 1.014,-1.025c0.608,0 1.013,0.41 1.013,1.025Zm-225.432,1.026c0.304,0.512 -0.102,1.025 -0.912,1.025c-0.912,-0 -1.621,-0.513 -1.621,-1.025c-0,-0.615 0.405,-1.026 0.912,-1.026c0.608,0 1.317,0.411 1.621,1.026Zm-48.633,2.05c0,0.82 -0.81,1.64 -1.722,1.845c-1.317,0.205 -1.824,-0.308 -1.824,-1.845c0,-1.538 0.507,-2.05 1.824,-1.845c0.912,0.205 1.722,1.025 1.722,1.845Zm366.973,0.717c-0.405,0.308 -1.013,0.308 -1.418,0c-0.304,-0.41 -0,-0.717 0.709,-0.717c0.709,-0 1.013,0.307 0.709,0.717Zm-31.104,10.661c-0,0.512 -0.71,0.922 -1.52,0.922c-1.52,0 -2.026,-1.23 -0.912,-2.357c0.811,-0.82 2.432,0.102 2.432,1.435Zm-19.555,0.615c-0.405,0.307 -0.709,-0 -0.709,-0.718c0,-0.717 0.304,-1.025 0.709,-0.717c0.304,0.41 0.304,1.025 0,1.435Zm-56.738,0.922c0.71,1.846 -1.722,3.896 -3.14,2.461c-1.115,-1.128 -0.102,-4.101 1.418,-4.101c0.608,0 1.317,0.718 1.722,1.64Zm152.99,0.103c-0.405,0.307 -1.013,0.307 -1.418,-0c-0.304,-0.41 -0,-0.718 0.709,-0.718c0.709,0 1.013,0.308 0.709,0.718Zm-199.292,1.23c0,0.615 -0.405,1.333 -1.013,1.64c-0.507,0.308 -1.013,-0.102 -1.013,-0.922c-0,-0.923 0.506,-1.641 1.013,-1.641c0.608,0 1.013,0.41 1.013,0.923Zm-9.422,2.87c-0.406,0.308 -0.71,0 -0.71,-0.717c0,-0.718 0.304,-1.025 0.71,-0.718c0.304,0.41 0.304,1.025 -0,1.435Zm20.567,6.458c0,0.513 -0.405,1.025 -1.013,1.025c-0.507,0 -1.013,-0.512 -1.013,-1.025c-0,-0.615 0.506,-1.025 1.013,-1.025c0.608,0 1.013,0.41 1.013,1.025Zm219.556,1.743c-0.405,0.307 -0.709,-0 -0.709,-0.718c-0,-0.717 0.304,-1.025 0.709,-0.717c0.304,0.41 0.304,1.025 -0,1.435Zm-163.122,2.05c-0.405,0.307 -1.013,0.307 -1.418,-0c-0.304,-0.41 -0,-0.718 0.709,-0.718c0.709,0 1.013,0.308 0.709,0.718Zm77.914,3.075c-1.014,1.025 -1.926,-0.513 -1.014,-1.845c0.608,-1.128 0.811,-1.128 1.216,-0c0.203,0.717 0.101,1.537 -0.202,1.845Zm-57.549,2.46c-0.203,0.615 -0.811,1.025 -1.317,1.025c-0.507,0 -1.115,-0.41 -1.317,-1.025c-0.203,-0.615 0.405,-1.127 1.317,-1.127c0.912,-0 1.52,0.512 1.317,1.127Zm108.613,-0.102c-0,0.512 -0.406,1.025 -1.013,1.025c-0.507,-0 -1.014,-0.513 -1.014,-1.025c0,-0.615 0.507,-1.025 1.014,-1.025c0.607,-0 1.013,0.41 1.013,1.025Zm-26.343,0.41c0,0.307 -0.405,0.82 -1.013,1.127c-0.507,0.308 -1.013,0.103 -1.013,-0.41c-0,-0.615 0.506,-1.127 1.013,-1.127c0.608,-0 1.013,0.205 1.013,0.41Zm-113.982,5.74c-0,0.718 -0.608,1.538 -1.216,1.743c-0.811,0.307 -1.317,-0.41 -1.317,-1.743c-0,-1.333 0.506,-2.05 1.317,-1.845c0.608,0.307 1.216,1.127 1.216,1.845Zm97.771,0.513c0,0.82 -0.709,1.537 -1.52,1.537c-0.81,0 -1.519,-0.717 -1.519,-1.537c-0,-0.821 0.709,-1.538 1.519,-1.538c0.811,-0 1.52,0.717 1.52,1.538Zm-284.703,1.537c0,0.513 -0.506,1.025 -1.114,1.025c-0.507,0 -0.71,-0.512 -0.406,-1.025c0.304,-0.615 0.811,-1.025 1.115,-1.025c0.203,0 0.405,0.41 0.405,1.025Zm218.543,-0.307c-0.406,0.307 -1.013,0.307 -1.419,-0c-0.304,-0.41 0,-0.718 0.709,-0.718c0.71,0 1.014,0.308 0.71,0.718Zm-168.897,2.357c-0,0.513 -0.405,1.025 -1.013,1.025c-0.507,0 -1.013,-0.512 -1.013,-1.025c-0,-0.615 0.506,-1.025 1.013,-1.025c0.608,0 1.013,0.41 1.013,1.025Zm302.636,-0.307c-0.405,0.307 -1.013,0.307 -1.418,-0c-0.304,-0.41 -0,-0.718 0.709,-0.718c0.709,0 1.013,0.308 0.709,0.718Zm-336.679,4.408c-0.202,5.125 -0.304,5.227 -2.431,3.895c-1.723,-1.128 -1.824,-1.435 -0.507,-2.87c0.81,-0.923 1.52,-2.256 1.52,-2.871c-0,-0.717 0.304,-1.23 0.81,-1.23c0.406,0 0.608,1.333 0.608,3.076Zm133.03,-1.436c-0.304,0.308 -1.215,0.41 -1.925,0.103c-0.81,-0.308 -0.506,-0.615 0.608,-0.615c1.115,-0.103 1.723,0.205 1.317,0.512Zm108.714,1.436c0,0.512 -0.405,1.025 -1.013,1.025c-0.506,-0 -1.013,-0.513 -1.013,-1.025c0,-0.616 0.507,-1.026 1.013,-1.026c0.608,0 1.013,0.41 1.013,1.026Zm-263.932,2.972c0.709,1.23 -1.216,2.46 -2.533,1.64c-1.115,-0.717 -0.406,-2.562 1.013,-2.562c0.506,-0 1.114,0.41 1.52,0.922Zm-63.628,5.946c-0.405,0.307 -0.709,-0 -0.709,-0.718c-0,-0.718 0.304,-1.025 0.709,-0.718c0.304,0.41 0.304,1.026 -0,1.436Zm361.705,7.175c-0.406,0.307 -1.014,0.307 -1.419,-0c-0.304,-0.41 0,-0.718 0.709,-0.718c0.71,0 1.013,0.308 0.71,0.718Zm-96.252,6.048c0.911,2.357 -1.318,4.1 -3.243,2.46c-1.215,-1.025 -1.317,-1.64 -0.405,-2.665c1.52,-1.845 2.837,-1.845 3.648,0.205Zm41.844,0.922c-0,0.82 -0.709,1.538 -1.52,1.538c-0.81,-0 -1.52,-0.718 -1.52,-1.538c0,-0.82 0.71,-1.537 1.52,-1.537c0.811,-0 1.52,0.717 1.52,1.537Zm-71.936,0.513c0,0.512 -0.405,1.025 -1.013,1.025c-0.507,-0 -1.013,-0.513 -1.013,-1.025c-0,-0.615 0.506,-1.025 1.013,-1.025c0.608,-0 1.013,0.41 1.013,1.025Zm188.249,4.408c0.405,2.05 -2.533,3.485 -4.053,1.947c-1.52,-1.537 -0.101,-4.51 1.925,-4.1c1.013,0.205 1.925,1.128 2.128,2.153Zm-360.489,1.23c-0,0.82 -0.709,1.537 -1.52,1.537c-0.81,0 -1.52,-0.717 -1.52,-1.537c0,-0.82 0.71,-1.538 1.52,-1.538c0.811,0 1.52,0.718 1.52,1.538Zm95.239,-0c-0,0.82 -0.406,1.537 -1.013,1.537c-0.507,0 -1.014,-0.717 -1.014,-1.537c0,-0.82 0.507,-1.538 1.014,-1.538c0.607,0 1.013,0.718 1.013,1.538Zm15.907,1.23c-0.406,0.307 -0.71,-0 -0.71,-0.718c0,-0.717 0.304,-1.025 0.71,-0.717c0.304,0.41 0.304,1.025 -0,1.435Zm-127.661,1.025c-0.405,0.307 -0.709,-0 -0.709,-0.718c-0,-0.717 0.304,-1.025 0.709,-0.717c0.304,0.41 0.304,1.025 0,1.435Zm61.095,1.332c-0,0.513 -0.507,1.026 -1.115,1.026c-0.506,-0 -0.709,-0.513 -0.405,-1.026c0.304,-0.615 0.811,-1.025 1.115,-1.025c0.202,0 0.405,0.41 0.405,1.025Zm101.014,0.718c-0.406,0.308 -0.71,0 -0.71,-0.718c0,-0.717 0.304,-1.025 0.71,-0.717c0.304,0.41 0.304,1.025 -0,1.435Zm-43.263,0.308c-0,0.512 -0.203,1.025 -0.405,1.025c-0.304,-0 -0.811,-0.513 -1.115,-1.025c-0.304,-0.616 -0.101,-1.026 0.405,-1.026c0.608,0 1.115,0.41 1.115,1.026Zm155.725,2.767c-0.405,0.308 -0.709,0 -0.709,-0.717c0,-0.718 0.304,-1.025 0.709,-0.718c0.304,0.41 0.304,1.025 0,1.435Zm-143.567,0.615c0,0.82 -0.304,1.743 -0.709,2.05c-0.912,0.923 -3.445,-1.332 -2.736,-2.46c0.811,-1.435 3.445,-1.127 3.445,0.41Zm-95.745,1.743c1.114,1.742 -0.507,3.28 -2.128,1.947c-0.709,-0.615 -1.114,-1.537 -0.81,-2.05c0.709,-1.23 2.127,-1.127 2.938,0.103Zm248.431,-0.308c-0.405,0.308 -1.013,0.308 -1.418,0c-0.304,-0.41 -0,-0.717 0.709,-0.717c0.709,-0 1.013,0.307 0.709,0.717Zm32.726,0.308c-0,0.512 -0.406,1.025 -1.014,1.025c-0.506,-0 -1.013,-0.513 -1.013,-1.025c0,-0.615 0.507,-1.025 1.013,-1.025c0.608,-0 1.014,0.41 1.014,1.025Zm-259.374,0.41c0,1.127 -1.925,1.537 -2.533,0.615c-0.304,-0.513 0.101,-1.025 0.912,-1.025c0.912,-0 1.621,0.205 1.621,0.41Zm-57.143,7.893c1.013,1.742 -1.317,3.69 -2.736,2.255c-1.216,-1.23 -0.405,-3.383 1.115,-3.383c0.506,0 1.216,0.513 1.621,1.128Zm115.401,5.023c-0.507,0.82 -1.115,0.82 -1.723,0.205c-0.607,-0.615 -0.709,-1.64 -0.304,-2.255c0.507,-0.821 1.115,-0.821 1.723,-0.205c0.608,0.615 0.709,1.64 0.304,2.255Zm227.458,-1.435c0,0.82 -0.506,1.23 -1.013,0.922c-0.608,-0.41 -0.81,-1.127 -0.506,-1.64c0.911,-1.435 1.519,-1.128 1.519,0.718Zm-48.632,1.435c-0,0.512 -0.406,1.025 -0.912,1.025c-0.608,-0 -1.317,-0.513 -1.621,-1.025c-0.304,-0.615 0.101,-1.025 0.912,-1.025c0.912,-0 1.621,0.41 1.621,1.025Zm-193.517,1.025c-0,0.512 -0.203,1.025 -0.406,1.025c-0.303,-0 -0.81,-0.513 -1.114,-1.025c-0.304,-0.615 -0.101,-1.025 0.405,-1.025c0.608,-0 1.115,0.41 1.115,1.025Zm-131.004,5.843c-0.405,0.307 -1.013,0.307 -1.419,-0c-0.304,-0.41 0,-0.718 0.71,-0.718c0.709,0 1.013,0.308 0.709,0.718Zm145.695,0.307c0.304,0.513 0.101,1.025 -0.405,1.025c-0.608,0 -1.115,-0.512 -1.115,-1.025c0,-0.615 0.203,-1.025 0.405,-1.025c0.304,0 0.811,0.41 1.115,1.025Zm63.83,0c0.304,0.513 0.101,1.025 -0.405,1.025c-0.608,0 -1.115,-0.512 -1.115,-1.025c0,-0.615 0.203,-1.025 0.406,-1.025c0.303,0 0.81,0.41 1.114,1.025Zm165.351,-0.307c-0.406,0.307 -1.013,0.307 -1.419,-0c-0.304,-0.41 0,-0.718 0.709,-0.718c0.71,0 1.014,0.308 0.71,0.718Zm-290.478,3.382c-0,0.513 -0.203,1.025 -0.406,1.025c-0.304,0 -0.81,-0.512 -1.114,-1.025c-0.304,-0.615 -0.102,-1.025 0.405,-1.025c0.608,0 1.115,0.41 1.115,1.025Zm123.101,0c0.304,0.513 0.101,1.025 -0.406,1.025c-0.608,0 -1.114,-0.512 -1.114,-1.025c-0,-0.615 0.203,-1.025 0.405,-1.025c0.304,0 0.811,0.41 1.115,1.025Zm-159.576,2.05c0,0.513 -0.405,1.025 -1.013,1.025c-0.507,0 -1.013,-0.512 -1.013,-1.025c-0,-0.615 0.506,-1.025 1.013,-1.025c0.608,0 1.013,0.41 1.013,1.025Zm94.226,1.64c-0,0.821 -0.912,1.436 -2.027,1.436c-2.229,-0 -2.837,-2.666 -0.709,-3.383c1.621,-0.615 2.736,0.102 2.736,1.947Zm256.334,-1.64c-0,0.513 -0.406,1.025 -1.013,1.025c-0.507,0 -1.014,-0.512 -1.014,-1.025c0,-0.615 0.507,-1.025 1.014,-1.025c0.607,0 1.013,0.41 1.013,1.025Zm-235.058,7.176c0,0.512 -0.405,1.025 -1.013,1.025c-0.506,-0 -1.013,-0.513 -1.013,-1.025c0,-0.615 0.507,-1.025 1.013,-1.025c0.608,-0 1.013,0.41 1.013,1.025Zm-196.556,1.435c-0,0.307 -0.405,0.82 -1.013,1.127c-0.507,0.308 -1.013,0.103 -1.013,-0.41c-0,-0.615 0.506,-1.127 1.013,-1.127c0.608,-0 1.013,0.205 1.013,0.41Zm137.286,2.665c0.303,0.513 0.405,1.025 0.101,1.025c-0.304,0 -0.811,-0.512 -1.115,-1.025c-0.304,-0.615 -0.405,-1.025 -0.101,-1.025c0.304,-0 0.811,0.41 1.115,1.025Zm161.601,3.075c0,0.513 -0.405,1.025 -1.013,1.025c-0.506,0 -1.013,-0.512 -1.013,-1.025c0,-0.615 0.507,-1.025 1.013,-1.025c0.608,0 1.013,0.41 1.013,1.025Zm-219.859,4.203c-0,0.513 -0.405,0.923 -1.013,0.923c-0.507,-0 -1.014,-0.718 -1.014,-1.641c0,-0.82 0.507,-1.23 1.014,-0.922c0.608,0.307 1.013,1.025 1.013,1.64Zm14.184,-1.128c0,0.513 -0.405,1.025 -1.013,1.025c-0.506,0 -1.013,-0.512 -1.013,-1.025c-0,-0.615 0.507,-1.025 1.013,-1.025c0.608,0 1.013,0.41 1.013,1.025Zm142.858,0.615c0,0.821 -0.405,1.231 -1.013,0.923c-0.506,-0.307 -1.013,-1.025 -1.013,-1.64c0,-0.513 0.507,-0.923 1.013,-0.923c0.608,0 1.013,0.718 1.013,1.64Zm-58.055,7.278c-0.405,0.308 -0.709,0 -0.709,-0.717c0,-0.718 0.304,-1.025 0.709,-0.718c0.304,0.41 0.304,1.025 0,1.435Zm166.465,1.333c0,0.513 -0.405,1.025 -1.013,1.025c-0.506,0 -1.013,-0.512 -1.013,-1.025c0,-0.615 0.507,-1.025 1.013,-1.025c0.608,-0 1.013,0.41 1.013,1.025Zm-315.098,1.64c0,0.82 -0.405,1.23 -1.013,0.923c-0.507,-0.308 -1.013,-1.025 -1.013,-1.64c-0,-0.513 0.506,-0.923 1.013,-0.923c0.608,-0 1.013,0.718 1.013,1.64Zm343.163,0.103c-0.405,0.307 -1.013,0.307 -1.418,-0c-0.304,-0.41 0,-0.718 0.709,-0.718c0.709,0 1.013,0.308 0.709,0.718Zm-3.748,2.357c-0,2.358 -2.533,2.768 -3.344,0.615c-0.709,-1.64 0.102,-2.665 2.027,-2.665c0.709,0 1.317,0.923 1.317,2.05Zm-342.758,-0.307c-0.406,0.307 -1.014,0.307 -1.419,-0c-0.304,-0.41 0,-0.718 0.709,-0.718c0.71,0 1.014,0.308 0.71,0.718Zm359.07,1.64c-1.317,1.332 -2.634,0.307 -1.621,-1.23c0.304,-0.615 1.114,-0.82 1.722,-0.513c0.608,0.41 0.608,1.025 -0.101,1.743Zm-149.343,-0.615c-0.405,0.307 -1.013,0.307 -1.418,-0c-0.304,-0.41 -0,-0.718 0.709,-0.718c0.709,0 1.013,0.308 0.709,0.718Zm200.61,9.225c-0.406,0.308 -1.014,0.308 -1.419,0c-0.304,-0.41 0,-0.717 0.709,-0.717c0.71,-0 1.014,0.307 0.71,0.717Zm-367.48,1.23c0,0.615 -0.405,1.333 -1.013,1.641c-0.507,0.307 -1.013,-0.103 -1.013,-0.923c-0,-0.923 0.506,-1.64 1.013,-1.64c0.608,-0 1.013,0.41 1.013,0.922Zm332.322,0.103c0,0.512 -0.405,1.025 -1.013,1.025c-0.506,-0 -1.013,-0.513 -1.013,-1.025c0,-0.615 0.507,-1.025 1.013,-1.025c0.608,-0 1.013,0.41 1.013,1.025Zm-296.05,2.358c0.202,1.025 -0.304,1.742 -1.216,1.742c-1.013,0 -1.621,-0.922 -1.621,-2.152c-0,-2.461 2.33,-2.153 2.837,0.41Zm309.931,2.46c-0.405,0.307 -0.709,-0 -0.709,-0.718c-0,-0.717 0.304,-1.025 0.709,-0.717c0.304,0.41 0.304,1.025 -0,1.435Zm-315.808,1.332c0,0.513 -0.405,1.025 -1.013,1.025c-0.506,0 -1.013,-0.512 -1.013,-1.025c-0,-0.615 0.507,-1.025 1.013,-1.025c0.608,0 1.013,0.41 1.013,1.025Zm339.415,3.075c-0,0.513 -0.203,1.026 -0.405,1.026c-0.304,-0 -0.811,-0.513 -1.115,-1.026c-0.304,-0.615 -0.101,-1.025 0.405,-1.025c0.608,0 1.115,0.41 1.115,1.025Zm9.119,2.666c-0,0.82 -0.406,1.23 -1.014,0.922c-0.506,-0.307 -1.013,-1.025 -1.013,-1.64c0,-0.512 0.507,-0.922 1.013,-0.922c0.608,-0 1.014,0.717 1.014,1.64Zm-407.805,3.485c0.304,0.615 -0.101,1.332 -1.013,1.64c-1.925,0.82 -3.039,-0 -2.026,-1.538c0.81,-1.435 2.229,-1.435 3.039,-0.102Zm254.815,1.025c-0,0.512 -0.406,1.025 -1.013,1.025c-0.507,-0 -1.014,-0.513 -1.014,-1.025c0,-0.615 0.507,-1.025 1.014,-1.025c0.607,-0 1.013,0.41 1.013,1.025Zm-5.471,3.178c1.013,1.742 -1.318,3.69 -2.736,2.255c-1.216,-1.23 -0.405,-3.383 1.114,-3.383c0.507,0 1.216,0.513 1.622,1.128Zm17.629,5.637c-0,0.82 -0.709,1.436 -1.52,1.436c-1.52,-0 -2.128,-2.153 -0.912,-3.383c1.013,-0.923 2.432,0.205 2.432,1.947Zm37.487,1.436c0,0.512 -0.506,1.025 -1.114,1.025c-0.507,-0 -0.709,-0.513 -0.405,-1.025c0.304,-0.616 0.81,-1.026 1.114,-1.026c0.203,0 0.405,0.41 0.405,1.026Zm-324.217,2.05c0,0.512 -0.405,1.025 -1.013,1.025c-0.506,-0 -1.013,-0.513 -1.013,-1.025c0,-0.615 0.507,-1.025 1.013,-1.025c0.608,-0 1.013,0.41 1.013,1.025Zm117.529,1.537c0,1.948 -2.026,2.973 -3.242,1.743c-1.52,-1.538 -0.203,-4.408 1.722,-3.69c0.811,0.307 1.52,1.23 1.52,1.947Zm119.251,2.255c-0.405,0.308 -1.013,0.308 -1.418,0c-0.304,-0.41 -0,-0.717 0.709,-0.717c0.709,-0 1.013,0.307 0.709,0.717Zm132.726,5.126c-0.405,0.307 -0.709,-0 -0.709,-0.718c0,-0.717 0.304,-1.025 0.709,-0.717c0.304,0.41 0.304,1.025 0,1.435Zm32.422,-0c-0.405,0.307 -0.709,-0 -0.709,-0.718c-0,-0.717 0.304,-1.025 0.709,-0.717c0.304,0.41 0.304,1.025 0,1.435Zm-162.818,1.332c0,0.513 -0.202,1.025 -0.405,1.025c-0.304,0 -0.81,-0.512 -1.114,-1.025c-0.304,-0.615 -0.102,-1.025 0.405,-1.025c0.608,0 1.114,0.41 1.114,1.025Zm57.752,1.538c-0,0.82 -0.406,1.537 -0.912,1.537c-1.317,0 -2.229,-1.64 -1.419,-2.46c1.115,-1.127 2.331,-0.615 2.331,0.923Zm41.033,4.613c0.304,0.512 0.406,1.025 0.102,1.025c-0.304,-0 -0.811,-0.513 -1.115,-1.025c-0.304,-0.615 -0.405,-1.025 -0.101,-1.025c0.304,-0 0.81,0.41 1.114,1.025Zm-32.117,2.152c-0.203,0.615 -0.811,1.025 -1.318,1.025c-0.506,0 -1.114,-0.41 -1.317,-1.025c-0.202,-0.615 0.406,-1.127 1.317,-1.127c0.912,-0 1.52,0.512 1.318,1.127Zm74.873,-0.41c-0.405,0.308 -1.013,0.308 -1.418,0c-0.304,-0.41 -0,-0.717 0.709,-0.717c0.709,-0 1.013,0.307 0.709,0.717Zm-217.833,6.151c-0.405,0.307 -1.013,0.307 -1.418,-0c-0.304,-0.41 -0,-0.718 0.709,-0.718c0.709,0 1.013,0.308 0.709,0.718Zm31.409,4.1c-0.406,0.307 -1.013,0.307 -1.419,-0c-0.304,-0.41 0,-0.718 0.709,-0.718c0.71,0 1.014,0.308 0.71,0.718Zm29.179,1.332c0.304,0.513 0.102,1.025 -0.405,1.025c-0.608,0 -1.115,-0.512 -1.115,-1.025c0,-0.615 0.203,-1.025 0.406,-1.025c0.304,0 0.81,0.41 1.114,1.025Zm6.282,-0.307c-0.405,0.307 -1.013,0.307 -1.419,-0c-0.303,-0.41 0,-0.718 0.71,-0.718c0.709,0 1.013,0.308 0.709,0.718Zm90.274,1.025c0.507,1.743 -2.634,2.973 -4.053,1.538c-0.608,-0.615 -0.709,-1.538 -0.304,-2.256c0.912,-1.435 3.749,-0.922 4.357,0.718Zm-179.434,2.05c-0.405,0.308 -1.013,0.308 -1.418,0c-0.304,-0.41 -0,-0.717 0.709,-0.717c0.709,-0 1.013,0.307 0.709,0.717Zm-80.243,1.333c-0.304,0.512 -1.014,1.025 -1.622,1.025c-0.506,-0 -0.911,-0.513 -0.911,-1.025c-0,-0.615 0.709,-1.025 1.621,-1.025c0.81,-0 1.216,0.41 0.912,1.025Zm-7.599,1.025c-0,0.512 -0.406,1.025 -1.013,1.025c-0.507,-0 -1.014,-0.513 -1.014,-1.025c0,-0.615 0.507,-1.025 1.014,-1.025c0.607,-0 1.013,0.41 1.013,1.025Zm116.515,0.615c0,0.922 -0.506,1.435 -1.216,1.23c-1.823,-0.615 -2.127,-2.87 -0.405,-2.87c0.912,-0 1.621,0.717 1.621,1.64Zm192.504,5.125c0,0.82 -0.709,1.435 -1.52,1.435c-1.52,0 -2.127,-2.152 -0.912,-3.383c1.014,-0.922 2.432,0.205 2.432,1.948Zm28.065,3.178c-0.405,0.307 -0.709,-0 -0.709,-0.718c-0,-0.717 0.304,-1.025 0.709,-0.717c0.304,0.41 0.304,1.025 0,1.435Zm15.907,0.205c0.304,0.512 -0.101,1.127 -0.912,1.435c-0.912,0.41 -1.216,0.102 -0.81,-0.923c0.607,-1.64 1.013,-1.742 1.722,-0.512Zm22.594,4.92c-0.405,0.308 -0.709,0 -0.709,-0.717c-0,-0.718 0.304,-1.026 0.709,-0.718c0.304,0.41 0.304,1.025 -0,1.435Zm-230.701,9.021c0,0.82 -0.405,1.537 -0.912,1.537c-1.317,0 -2.229,-1.64 -1.418,-2.46c1.114,-1.128 2.33,-0.615 2.33,0.923Zm-83.384,1.23c-0.406,0.307 -0.71,-0 -0.71,-0.718c0,-0.717 0.304,-1.025 0.71,-0.717c0.304,0.41 0.304,1.025 -0,1.435Zm282.98,1.435c0,0.512 -0.709,0.922 -1.52,0.922c-1.519,0 -2.026,-1.23 -0.911,-2.357c0.81,-0.82 2.431,0.102 2.431,1.435Zm-259.373,2.05c-0,2.563 -3.344,2.255 -3.85,-0.41c-0.203,-1.23 0.304,-1.743 1.722,-1.743c1.52,0 2.128,0.615 2.128,2.153Zm167.174,1.435c0,0.82 -0.709,1.538 -1.52,1.538c-0.81,-0 -1.519,-0.718 -1.519,-1.538c-0,-0.82 0.709,-1.538 1.519,-1.538c0.811,0 1.52,0.718 1.52,1.538Zm-64.337,0.513c-0.304,0.512 -1.013,1.025 -1.621,1.025c-0.506,-0 -0.912,-0.513 -0.912,-1.025c0,-0.616 0.71,-1.026 1.621,-1.026c0.811,0 1.216,0.41 0.912,1.026Zm-175.077,3.792c-0.405,0.308 -1.013,0.308 -1.418,0c-0.304,-0.41 -0,-0.717 0.709,-0.717c0.709,-0 1.013,0.307 0.709,0.717Zm314.896,3.178c-0.304,0.307 -1.115,-0 -1.824,-0.718c-0.912,-1.025 -0.81,-1.127 0.608,-0.512c1.013,0.307 1.52,0.922 1.216,1.23Zm24.519,3.998c-0.406,0.307 -1.013,0.307 -1.419,-0c-0.304,-0.41 0,-0.718 0.709,-0.718c0.71,0 1.014,0.308 0.71,0.718Zm-330.296,2.05c-0.406,0.307 -0.71,-0 -0.71,-0.718c0,-0.717 0.304,-1.025 0.71,-0.717c0.304,0.41 0.304,1.025 -0,1.435Zm78.014,-1.025c-0.405,0.307 -1.013,0.307 -1.418,-0c-0.304,-0.41 -0,-0.718 0.709,-0.718c0.709,0 1.013,0.308 0.709,0.718Zm111.754,3.792c-0,0.308 -0.405,0.821 -1.013,1.128c-0.507,0.308 -1.013,0.103 -1.013,-0.41c-0,-0.615 0.506,-1.128 1.013,-1.128c0.608,0 1.013,0.205 1.013,0.41Zm153.192,5.946c-1.722,1.742 -4.762,-0.923 -3.039,-2.973c1.013,-1.23 1.317,-1.23 2.735,0.103c1.115,1.23 1.216,1.947 0.304,2.87Zm-34.65,-0.718c-0,1.64 -2.736,2.768 -3.648,1.435c-0.304,-0.512 -0.304,-1.64 0,-2.46c0.608,-1.742 3.648,-0.922 3.648,1.025Zm-17.224,0.513c-0,0.512 -0.406,1.025 -1.013,1.025c-0.507,-0 -1.014,-0.513 -1.014,-1.025c0,-0.615 0.507,-1.025 1.014,-1.025c0.607,-0 1.013,0.41 1.013,1.025Zm-34.144,3.69c0.911,1.025 -0.406,3.485 -1.925,3.485c-0.811,0 -1.419,-0.922 -1.419,-2.05c0,-1.948 1.925,-2.768 3.344,-1.435Zm19.959,0.41c0,0.513 -0.405,1.025 -1.013,1.025c-0.507,0 -1.013,-0.512 -1.013,-1.025c-0,-0.615 0.506,-1.025 1.013,-1.025c0.608,-0 1.013,0.41 1.013,1.025Zm-344.683,3.28c-0.608,1.845 -2.837,2.153 -2.837,0.41c0,-0.922 0.709,-1.64 1.621,-1.64c0.912,0 1.419,0.513 1.216,1.23Zm166.364,-0.205c-0,0.513 -0.405,1.025 -1.013,1.025c-0.507,0 -1.013,-0.512 -1.013,-1.025c-0,-0.615 0.506,-1.025 1.013,-1.025c0.608,0 1.013,0.41 1.013,1.025Zm-187.742,0.718c-0.405,0.307 -1.013,0.307 -1.418,-0c-0.304,-0.41 -0,-0.718 0.709,-0.718c0.709,0 1.013,0.308 0.709,0.718Zm373.863,2.05c-0.406,0.307 -0.71,-0 -0.71,-0.718c0,-0.717 0.304,-1.025 0.71,-0.717c0.304,0.41 0.304,1.025 -0,1.435Zm-348.23,-0.308c0,0.308 -0.405,0.82 -1.013,1.128c-0.506,0.307 -1.013,0.102 -1.013,-0.41c0,-0.615 0.507,-1.128 1.013,-1.128c0.608,0 1.013,0.205 1.013,0.41Zm198.583,1.64c0,0.513 -0.405,1.026 -1.013,1.026c-0.506,-0 -1.013,-0.513 -1.013,-1.026c-0,-0.615 0.507,-1.025 1.013,-1.025c0.608,0 1.013,0.41 1.013,1.025Zm-14.488,0.718c-0.405,0.308 -1.013,0.308 -1.419,0c-0.304,-0.41 0,-0.718 0.71,-0.718c0.709,0 1.013,0.308 0.709,0.718Zm-9.119,2.05c-0.405,0.308 -0.709,0 -0.709,-0.717c0,-0.718 0.304,-1.025 0.709,-0.718c0.304,0.41 0.304,1.025 0,1.435Zm-146.607,1.333c0,0.512 -0.709,1.025 -1.621,1.025c-0.81,-0 -1.215,-0.513 -0.912,-1.025c0.304,-0.615 1.014,-1.025 1.622,-1.025c0.506,-0 0.911,0.41 0.911,1.025Zm279.334,0.717c-0.406,0.308 -0.71,0 -0.71,-0.717c0,-0.718 0.304,-1.025 0.71,-0.718c0.304,0.41 0.304,1.025 -0,1.435Zm-37.184,4.408c-0,0.513 -0.405,1.025 -1.013,1.025c-0.507,0 -1.013,-0.512 -1.013,-1.025c-0,-0.615 0.506,-1.025 1.013,-1.025c0.608,-0 1.013,0.41 1.013,1.025Zm-111.754,1.743c-0.405,0.307 -1.013,0.307 -1.418,-0c-0.304,-0.41 -0,-0.718 0.709,-0.718c0.709,0 1.013,0.308 0.709,0.718Zm-122.594,2.05c-0.405,0.307 -0.709,-0 -0.709,-0.718c-0,-0.717 0.304,-1.025 0.709,-0.717c0.304,0.41 0.304,1.025 -0,1.435Zm160.386,0.615c-0,0.82 -0.304,1.742 -0.709,2.05c-0.912,0.922 -3.445,-1.333 -2.736,-2.46c0.811,-1.435 3.445,-1.128 3.445,0.41Zm-192.504,11.993c0,0.513 -0.405,1.025 -1.013,1.025c-0.507,0 -1.013,-0.512 -1.013,-1.025c-0,-0.615 0.506,-1.025 1.013,-1.025c0.608,-0 1.013,0.41 1.013,1.025Zm162.818,5.843c-0.405,0.307 -0.709,-0 -0.709,-0.718c-0,-0.717 0.304,-1.025 0.709,-0.717c0.304,0.41 0.304,1.025 -0,1.435Zm-149.14,2.153c0,1.845 -2.026,1.537 -2.33,-0.411c-0.304,-1.025 0.101,-1.537 1.013,-1.23c0.709,0.308 1.317,1.025 1.317,1.641Zm97.062,1.742c0.102,0.513 -0.607,1.128 -1.519,1.333c-1.115,0.205 -1.824,-0.308 -1.824,-1.333c-0,-1.742 3.04,-1.845 3.343,0Zm16.617,-0.82c-0.406,0.308 -1.014,0.308 -1.419,0c-0.304,-0.41 0,-0.717 0.709,-0.717c0.71,-0 1.014,0.307 0.71,0.717Zm86.12,1.025c-0.406,0.308 -0.709,0 -0.709,-0.717c-0,-0.718 0.303,-1.025 0.709,-0.718c0.304,0.41 0.304,1.025 -0,1.435Zm-166.161,3.075c-0.406,0.308 -0.71,0 -0.71,-0.717c0,-0.718 0.304,-1.025 0.71,-0.718c0.303,0.41 0.303,1.025 -0,1.435Zm-31.409,1.025c-0.405,0.308 -0.709,0 -0.709,-0.717c-0,-0.718 0.304,-1.025 0.709,-0.718c0.304,0.41 0.304,1.025 0,1.435Zm144.175,-0.717c0,0.512 -0.405,1.025 -1.013,1.025c-0.507,-0 -1.013,-0.513 -1.013,-1.025c-0,-0.615 0.506,-1.025 1.013,-1.025c0.608,-0 1.013,0.41 1.013,1.025Zm52.989,2.562c0.102,0.513 -0.607,1.128 -1.519,1.333c-1.115,0.205 -1.824,-0.307 -1.824,-1.333c-0,-1.742 3.04,-1.845 3.343,0Zm124.013,-0.82c-0.405,0.308 -1.013,0.308 -1.418,0c-0.304,-0.41 0,-0.717 0.709,-0.717c0.709,-0 1.013,0.307 0.709,0.717Zm-324.217,4.101c-0.405,0.307 -0.709,-0 -0.709,-0.718c0,-0.717 0.304,-1.025 0.709,-0.717c0.304,0.41 0.304,1.025 0,1.435Zm68.187,1.23c0,0.512 -0.709,1.435 -1.621,2.152c-1.216,1.128 -1.823,1.025 -3.141,-0.307c-2.33,-2.255 0,-5.33 2.837,-3.69c1.014,0.512 1.925,1.332 1.925,1.845Zm-99.595,1.845c-0.405,0.307 -0.709,-0 -0.709,-0.718c-0,-0.717 0.304,-1.025 0.709,-0.717c0.304,0.41 0.304,1.025 -0,1.435Zm169.505,0.307c-0,0.513 -0.406,1.025 -1.014,1.025c-0.506,0 -1.013,-0.512 -1.013,-1.025c0,-0.615 0.507,-1.025 1.013,-1.025c0.608,0 1.014,0.41 1.014,1.025Zm110.436,1.025c0,0.513 -0.405,1.026 -1.013,1.026c-0.507,-0 -1.013,-0.513 -1.013,-1.026c-0,-0.615 0.506,-1.025 1.013,-1.025c0.608,0 1.013,0.41 1.013,1.025Zm6.079,0c0,0.513 -0.405,1.026 -1.013,1.026c-0.507,-0 -1.013,-0.513 -1.013,-1.026c-0,-0.615 0.506,-1.025 1.013,-1.025c0.608,0 1.013,0.41 1.013,1.025Zm42.25,0.718c-0.406,0.308 -0.71,-0 -0.71,-0.718c0,-0.717 0.304,-1.025 0.71,-0.717c0.304,0.41 0.304,1.025 -0,1.435Zm-98.481,2.358c-0.304,0.512 -1.013,1.025 -1.621,1.025c-0.507,-0 -0.912,-0.513 -0.912,-1.025c-0,-0.615 0.709,-1.025 1.621,-1.025c0.81,-0 1.216,0.41 0.912,1.025Zm-161.906,4.817c-0.405,0.308 -0.709,0 -0.709,-0.717c-0,-0.718 0.304,-1.025 0.709,-0.718c0.304,0.41 0.304,1.025 -0,1.435Zm38.501,2.051c-0.406,0.307 -0.71,-0 -0.71,-0.718c0,-0.718 0.304,-1.025 0.71,-0.718c0.304,0.41 0.304,1.026 -0,1.436Zm240.427,3.382c-0,0.513 -0.203,1.025 -0.405,1.025c-0.304,0 -0.811,-0.512 -1.115,-1.025c-0.304,-0.615 -0.101,-1.025 0.405,-1.025c0.608,0 1.115,0.41 1.115,1.025Zm-64.033,1.743c-0.405,2.255 -2.229,2.05 -2.634,-0.103c-0.203,-1.025 0.304,-1.64 1.317,-1.64c1.013,0 1.52,0.718 1.317,1.743Zm-158.157,-0c-0.405,0.307 -1.013,0.307 -1.419,-0c-0.304,-0.41 0,-0.718 0.71,-0.718c0.709,0 1.013,0.308 0.709,0.718Zm142.757,4.51c-1.925,1.538 -2.229,1.538 -4.256,0.103l-2.127,-1.743l2.127,-1.025c1.419,-0.718 2.837,-0.718 4.256,-0.103l2.127,1.026l-2.127,1.742Zm9.017,-1.127c0.304,0.512 -0.101,1.025 -1.013,1.025c-0.912,-0 -1.317,-0.513 -1.013,-1.025c0.304,-0.615 0.81,-1.026 1.013,-1.026c0.202,0 0.709,0.411 1.013,1.026Zm-264.946,2.05c-0,0.512 -0.405,1.025 -1.013,1.025c-0.507,-0 -1.013,-0.513 -1.013,-1.025c-0,-0.615 0.506,-1.025 1.013,-1.025c0.608,-0 1.013,0.41 1.013,1.025Zm343.467,-0c0,0.512 -0.709,1.025 -1.621,1.025c-0.81,-0 -1.216,-0.513 -0.912,-1.025c0.304,-0.615 1.013,-1.025 1.621,-1.025c0.507,-0 0.912,0.41 0.912,1.025Zm-16.413,2.255c-0.608,1.845 -2.837,2.152 -2.837,0.41c-0,-0.923 0.709,-1.64 1.621,-1.64c0.912,-0 1.418,0.512 1.216,1.23Zm-345.291,13.121c-0,0.512 -0.507,1.025 -1.115,1.025c-0.506,-0 -0.709,-0.513 -0.405,-1.025c0.304,-0.615 0.81,-1.025 1.114,-1.025c0.203,-0 0.406,0.41 0.406,1.025Zm117.528,1.127c0,0.513 -0.405,0.923 -1.013,0.923c-0.506,-0 -1.013,-0.718 -1.013,-1.64c-0,-0.82 0.507,-1.23 1.013,-0.923c0.608,0.308 1.013,1.025 1.013,1.64Zm229.485,-0.205c0.709,1.23 -1.216,2.46 -2.533,1.64c-1.114,-0.717 -0.405,-2.562 1.013,-2.562c0.507,-0 1.115,0.41 1.52,0.922Zm-100.811,1.128c-0,0.512 -0.405,1.025 -1.013,1.025c-0.507,-0 -1.013,-0.513 -1.013,-1.025c-0,-0.615 0.506,-1.025 1.013,-1.025c0.608,-0 1.013,0.41 1.013,1.025Zm-207.702,3.075c0,0.512 -0.405,1.025 -1.013,1.025c-0.506,-0 -1.013,-0.513 -1.013,-1.025c0,-0.615 0.507,-1.025 1.013,-1.025c0.608,-0 1.013,0.41 1.013,1.025Zm178.016,5.843c-0.405,0.307 -1.013,0.307 -1.419,-0c-0.304,-0.41 0,-0.718 0.71,-0.718c0.709,0 1.013,0.308 0.709,0.718Zm194.834,2.87c-0,0.82 -0.405,1.538 -1.013,1.538c-0.507,-0 -1.013,-0.718 -1.013,-1.538c-0,-0.82 0.506,-1.538 1.013,-1.538c0.608,0 1.013,0.718 1.013,1.538Zm-141.845,8.61c0,0.615 -0.405,1.333 -1.013,1.641c-0.507,0.307 -1.013,-0.103 -1.013,-0.923c-0,-0.923 0.506,-1.64 1.013,-1.64c0.608,-0 1.013,0.41 1.013,0.922Zm-84.398,1.846c-0.405,0.307 -0.709,-0 -0.709,-0.718c0,-0.718 0.304,-1.025 0.709,-0.718c0.304,0.41 0.304,1.026 0,1.436Zm77.61,1.845c0.101,0.512 -0.608,1.127 -1.52,1.332c-1.115,0.205 -1.824,-0.307 -1.824,-1.332c0,-1.743 3.04,-1.845 3.344,-0Zm31.104,0.512c0,0.513 -0.405,1.025 -1.013,1.025c-0.506,0 -1.013,-0.512 -1.013,-1.025c-0,-0.615 0.507,-1.025 1.013,-1.025c0.608,0 1.013,0.41 1.013,1.025Zm-50.659,1.025c0,0.513 -0.506,1.025 -1.114,1.025c-0.507,0 -0.709,-0.512 -0.405,-1.025c0.304,-0.615 0.81,-1.025 1.114,-1.025c0.203,0 0.405,0.41 0.405,1.025Zm-206.688,1.025c0,0.513 -0.405,1.025 -1.013,1.025c-0.507,0 -1.013,-0.512 -1.013,-1.025c-0,-0.615 0.506,-1.025 1.013,-1.025c0.608,0 1.013,0.41 1.013,1.025Zm377.814,5.741c-1.52,1.845 -2.837,1.845 -3.647,-0.205c-0.811,-2.05 1.722,-3.691 3.445,-2.255c1.013,0.82 1.013,1.435 0.202,2.46Zm-384.906,3.485c-0,0.512 -0.405,1.025 -1.013,1.025c-0.507,-0 -1.014,-0.513 -1.014,-1.025c0,-0.615 0.507,-1.025 1.014,-1.025c0.608,-0 1.013,0.41 1.013,1.025Z" style="fill:#041e37;fill-rule:nonzero;"/></g></svg>