<?xml version="1.0" encoding="UTF-8" standalone="no"?>
<!DOCTYPE svg PUBLIC "-//W3C//DTD SVG 1.1//EN" "http://www.w3.org/Graphics/SVG/1.1/DTD/svg11.dtd">
<svg width="100%" height="100%" viewBox="0 0 3544 1182" version="1.1" xmlns="http://www.w3.org/2000/svg" xmlns:xlink="http://www.w3.org/1999/xlink" xml:space="preserve" xmlns:serif="http://www.serif.com/" style="fill-rule:evenodd;clip-rule:evenodd;stroke-linejoin:round;stroke-miterlimit:2;">
    <g transform="matrix(1.53601,0,0,1.53601,-331.626,-253.08)">
        <g transform="matrix(403.68,0,0,403.68,448.155,624.624)">
            <path d="M0.152,0.115C0.118,0.064 0.088,0.004 0.063,-0.065C0.037,-0.134 0.025,-0.21 0.025,-0.291C0.025,-0.34 0.031,-0.39 0.043,-0.442C0.055,-0.494 0.075,-0.545 0.104,-0.595C0.133,-0.645 0.171,-0.687 0.219,-0.723C0.267,-0.759 0.317,-0.784 0.37,-0.798C0.422,-0.811 0.49,-0.818 0.572,-0.818L0.678,-0.818L0.729,-0.633L0.561,-0.633C0.516,-0.633 0.475,-0.628 0.437,-0.618C0.399,-0.608 0.365,-0.589 0.335,-0.561C0.305,-0.533 0.282,-0.494 0.266,-0.443L0.479,-0.443L0.479,-0.609L0.693,-0.609L0.693,-0L0.479,-0L0.479,-0.26L0.244,-0.26C0.244,-0.217 0.252,-0.172 0.268,-0.124C0.284,-0.077 0.303,-0.035 0.326,-0L0.152,0.115Z" style="fill:white;fill-rule:nonzero;"/>
        </g>
        <g transform="matrix(403.68,0,0,403.68,754.955,624.624)">
            <path d="M0.059,-0L0.059,-0.605L0.242,-0.605L0.242,-0.57C0.277,-0.603 0.322,-0.619 0.377,-0.619L0.377,-0.445C0.317,-0.443 0.275,-0.421 0.25,-0.381L0.25,-0L0.059,-0Z" style="fill:white;fill-rule:nonzero;"/>
        </g>
        <g transform="matrix(403.68,0,0,403.68,922.892,624.624)">
            <path d="M0.588,-0.605L0.301,0.209L0.094,0.209L0.188,-0.053L-0.027,-0.605L0.199,-0.605L0.287,-0.318L0.289,-0.318L0.377,-0.605L0.588,-0.605Z" style="fill:white;fill-rule:nonzero;"/>
        </g>
        <g transform="matrix(403.68,0,0,403.68,1149.37,624.624)">
            <path d="M0.02,-0.373C0.02,-0.433 0.032,-0.48 0.057,-0.514C0.082,-0.549 0.113,-0.573 0.151,-0.586C0.188,-0.599 0.228,-0.605 0.271,-0.605L0.564,-0.605L0.564,-0L0.371,-0C0.302,-0 0.24,-0.018 0.187,-0.054C0.133,-0.091 0.092,-0.138 0.063,-0.196C0.034,-0.254 0.02,-0.313 0.02,-0.373ZM0.299,-0.441C0.269,-0.441 0.248,-0.434 0.236,-0.42C0.223,-0.406 0.217,-0.385 0.217,-0.357C0.217,-0.329 0.223,-0.302 0.235,-0.274C0.247,-0.245 0.265,-0.221 0.289,-0.201C0.312,-0.181 0.34,-0.168 0.373,-0.162L0.373,-0.441L0.299,-0.441Z" style="fill:white;fill-rule:nonzero;"/>
        </g>
        <g transform="matrix(403.68,0,0,403.68,1399.21,624.624)">
            <path d="M0.057,-0L0.057,-0.818L0.248,-0.818L0.248,-0.605L0.348,-0.605C0.406,-0.605 0.454,-0.595 0.492,-0.576C0.53,-0.557 0.557,-0.53 0.574,-0.495C0.591,-0.46 0.6,-0.419 0.6,-0.371C0.6,-0.311 0.586,-0.252 0.557,-0.194C0.528,-0.137 0.488,-0.09 0.435,-0.054C0.382,-0.018 0.322,-0 0.254,-0L0.057,-0ZM0.248,-0.162C0.281,-0.168 0.309,-0.18 0.333,-0.201C0.356,-0.221 0.374,-0.245 0.386,-0.272C0.398,-0.3 0.404,-0.328 0.404,-0.357C0.404,-0.391 0.396,-0.413 0.38,-0.424C0.365,-0.435 0.341,-0.441 0.311,-0.441L0.248,-0.441L0.248,-0.162Z" style="fill:white;fill-rule:nonzero;"/>
        </g>
        <g transform="matrix(403.68,0,0,403.68,1649.04,624.624)">
            <path d="M0.053,-0L0.053,-0.818L0.246,-0.818L0.246,-0.605L0.352,-0.605C0.403,-0.605 0.443,-0.598 0.474,-0.585C0.505,-0.571 0.528,-0.548 0.543,-0.516C0.558,-0.484 0.566,-0.441 0.566,-0.387L0.568,-0L0.375,-0L0.375,-0.344C0.375,-0.372 0.374,-0.392 0.371,-0.405C0.368,-0.418 0.361,-0.427 0.349,-0.432C0.338,-0.438 0.318,-0.441 0.291,-0.441L0.246,-0.441L0.246,-0L0.053,-0Z" style="fill:white;fill-rule:nonzero;"/>
        </g>
        <g transform="matrix(403.68,0,0,403.68,1898.88,624.624)">
            <path d="M0.02,-0.373C0.02,-0.433 0.032,-0.48 0.057,-0.514C0.082,-0.549 0.113,-0.573 0.151,-0.586C0.188,-0.599 0.228,-0.605 0.271,-0.605L0.564,-0.605L0.564,-0L0.371,-0C0.302,-0 0.24,-0.018 0.187,-0.054C0.133,-0.091 0.092,-0.138 0.063,-0.196C0.034,-0.254 0.02,-0.313 0.02,-0.373ZM0.299,-0.441C0.269,-0.441 0.248,-0.434 0.236,-0.42C0.223,-0.406 0.217,-0.385 0.217,-0.357C0.217,-0.329 0.223,-0.302 0.235,-0.274C0.247,-0.245 0.265,-0.221 0.289,-0.201C0.312,-0.181 0.34,-0.168 0.373,-0.162L0.373,-0.441L0.299,-0.441Z" style="fill:white;fill-rule:nonzero;"/>
        </g>
        <g transform="matrix(403.68,0,0,403.68,2148.71,624.624)">
            <path d="M0.063,-0.186L0.063,-0.447L0.02,-0.447L0.02,-0.605L0.063,-0.605L0.063,-0.723L0.256,-0.779L0.256,-0.605L0.355,-0.605L0.355,-0.447L0.256,-0.447L0.256,-0.217C0.256,-0.201 0.257,-0.19 0.26,-0.182C0.262,-0.175 0.267,-0.169 0.276,-0.167C0.284,-0.164 0.296,-0.162 0.313,-0.162L0.381,-0.162L0.332,-0L0.246,-0C0.204,-0 0.17,-0.007 0.142,-0.02C0.115,-0.033 0.095,-0.054 0.082,-0.081C0.069,-0.108 0.063,-0.143 0.063,-0.186Z" style="fill:white;fill-rule:nonzero;"/>
        </g>
    </g>
    <g transform="matrix(1.29402,0,0,1.29402,-69.6982,-170.837)">
        <g transform="matrix(111.578,0,0,111.578,346.261,901.871)">
            <path d="M0.07,-0.055L0.07,-0.818L0.555,-0.818L0.605,-0.633L0.283,-0.633L0.283,-0.502L0.574,-0.502L0.523,-0.318L0.283,-0.318L0.283,-0.115C0.283,-0.064 0.288,-0.026 0.297,-0L0.104,0.125C0.091,0.1 0.082,0.073 0.077,0.045C0.072,0.017 0.07,-0.016 0.07,-0.055Z" style="fill:white;fill-rule:nonzero;"/>
        </g>
        <g transform="matrix(111.578,0,0,111.578,413.219,901.871)">
            <path d="M0.021,-0.389C0.021,-0.428 0.027,-0.462 0.039,-0.492C0.05,-0.521 0.067,-0.545 0.089,-0.564C0.111,-0.582 0.136,-0.596 0.167,-0.605C0.197,-0.614 0.231,-0.619 0.268,-0.619L0.354,-0.619C0.424,-0.619 0.483,-0.601 0.53,-0.566C0.577,-0.53 0.6,-0.471 0.6,-0.389C0.6,-0.334 0.59,-0.275 0.568,-0.211C0.547,-0.148 0.515,-0.093 0.471,-0.049C0.428,-0.004 0.374,0.018 0.311,0.018C0.256,0.018 0.206,-0.001 0.161,-0.04C0.117,-0.079 0.082,-0.13 0.058,-0.193C0.033,-0.256 0.021,-0.321 0.021,-0.389ZM0.217,-0.371C0.217,-0.336 0.222,-0.301 0.232,-0.268C0.241,-0.235 0.253,-0.208 0.268,-0.187C0.282,-0.166 0.296,-0.156 0.309,-0.156C0.323,-0.156 0.337,-0.166 0.352,-0.186C0.367,-0.206 0.379,-0.232 0.389,-0.265C0.399,-0.298 0.404,-0.334 0.404,-0.371C0.404,-0.427 0.373,-0.455 0.311,-0.455C0.248,-0.455 0.217,-0.427 0.217,-0.371Z" style="fill:white;fill-rule:nonzero;"/>
        </g>
        <g transform="matrix(111.578,0,0,111.578,482.275,901.871)">
            <path d="M0.021,-0.252C0.021,-0.289 0.026,-0.327 0.036,-0.366C0.045,-0.406 0.056,-0.44 0.067,-0.469C0.079,-0.498 0.097,-0.544 0.123,-0.605L0.32,-0.605C0.315,-0.589 0.304,-0.561 0.29,-0.521C0.275,-0.481 0.263,-0.448 0.255,-0.422C0.246,-0.396 0.239,-0.37 0.234,-0.343C0.228,-0.317 0.225,-0.291 0.225,-0.266C0.225,-0.235 0.23,-0.212 0.24,-0.198C0.249,-0.183 0.263,-0.173 0.281,-0.169C0.299,-0.164 0.325,-0.162 0.357,-0.162L0.379,-0.162L0.379,-0.605L0.57,-0.605L0.57,-0L0.264,-0C0.102,-0 0.021,-0.084 0.021,-0.252Z" style="fill:white;fill-rule:nonzero;"/>
        </g>
        <g transform="matrix(111.578,0,0,111.578,551.33,901.871)">
            <path d="M0.34,-0.605C0.389,-0.605 0.43,-0.6 0.461,-0.591C0.493,-0.582 0.518,-0.561 0.538,-0.527C0.558,-0.493 0.568,-0.442 0.568,-0.373L0.568,-0L0.375,-0L0.375,-0.344C0.375,-0.371 0.374,-0.391 0.371,-0.403C0.368,-0.416 0.361,-0.425 0.349,-0.432C0.337,-0.438 0.318,-0.441 0.291,-0.441L0.246,-0.441L0.246,-0L0.053,-0L0.053,-0.605L0.34,-0.605Z" style="fill:white;fill-rule:nonzero;"/>
        </g>
        <g transform="matrix(111.578,0,0,111.578,620.386,901.871)">
            <path d="M0.57,-0L0.373,-0C0.305,-0 0.244,-0.018 0.19,-0.054C0.137,-0.09 0.095,-0.137 0.065,-0.195C0.035,-0.252 0.02,-0.311 0.02,-0.371C0.02,-0.418 0.029,-0.46 0.047,-0.495C0.066,-0.53 0.094,-0.557 0.132,-0.576C0.171,-0.595 0.219,-0.605 0.277,-0.605L0.379,-0.605L0.379,-0.818L0.57,-0.818L0.57,-0ZM0.379,-0.162L0.379,-0.441L0.311,-0.441C0.28,-0.441 0.257,-0.435 0.241,-0.424C0.225,-0.413 0.217,-0.392 0.217,-0.359C0.217,-0.322 0.225,-0.29 0.24,-0.262C0.255,-0.234 0.273,-0.211 0.295,-0.195C0.311,-0.183 0.326,-0.174 0.342,-0.169C0.357,-0.165 0.368,-0.162 0.373,-0.162L0.379,-0.162Z" style="fill:white;fill-rule:nonzero;"/>
        </g>
        <g transform="matrix(111.578,0,0,111.578,689.441,901.871)">
            <path d="M0.02,-0.373C0.02,-0.433 0.032,-0.48 0.057,-0.514C0.082,-0.549 0.113,-0.573 0.151,-0.586C0.188,-0.599 0.228,-0.605 0.271,-0.605L0.564,-0.605L0.564,-0L0.371,-0C0.302,-0 0.24,-0.018 0.187,-0.054C0.133,-0.091 0.092,-0.138 0.063,-0.196C0.034,-0.254 0.02,-0.313 0.02,-0.373ZM0.299,-0.441C0.269,-0.441 0.248,-0.434 0.236,-0.42C0.223,-0.406 0.217,-0.385 0.217,-0.357C0.217,-0.329 0.223,-0.302 0.235,-0.274C0.247,-0.245 0.265,-0.221 0.289,-0.201C0.312,-0.181 0.34,-0.168 0.373,-0.162L0.373,-0.441L0.299,-0.441Z" style="fill:white;fill-rule:nonzero;"/>
        </g>
        <g transform="matrix(111.578,0,0,111.578,758.496,901.871)">
            <path d="M0.063,-0.186L0.063,-0.447L0.02,-0.447L0.02,-0.605L0.063,-0.605L0.063,-0.723L0.256,-0.779L0.256,-0.605L0.355,-0.605L0.355,-0.447L0.256,-0.447L0.256,-0.217C0.256,-0.201 0.257,-0.19 0.26,-0.182C0.262,-0.175 0.267,-0.169 0.276,-0.167C0.284,-0.164 0.296,-0.162 0.313,-0.162L0.381,-0.162L0.332,-0L0.246,-0C0.204,-0 0.17,-0.007 0.142,-0.02C0.115,-0.033 0.095,-0.054 0.082,-0.081C0.069,-0.108 0.063,-0.143 0.063,-0.186Z" style="fill:white;fill-rule:nonzero;"/>
        </g>
        <g transform="matrix(111.578,0,0,111.578,801.019,901.871)">
            <path d="M0.246,-0.605L0.246,-0L0.055,-0L0.055,-0.605L0.246,-0.605ZM0.246,-0.818L0.246,-0.654L0.055,-0.654L0.055,-0.818L0.246,-0.818Z" style="fill:white;fill-rule:nonzero;"/>
        </g>
        <g transform="matrix(111.578,0,0,111.578,834.607,901.871)">
            <path d="M0.021,-0.389C0.021,-0.428 0.027,-0.462 0.039,-0.492C0.05,-0.521 0.067,-0.545 0.089,-0.564C0.111,-0.582 0.136,-0.596 0.167,-0.605C0.197,-0.614 0.231,-0.619 0.268,-0.619L0.354,-0.619C0.424,-0.619 0.483,-0.601 0.53,-0.566C0.577,-0.53 0.6,-0.471 0.6,-0.389C0.6,-0.334 0.59,-0.275 0.568,-0.211C0.547,-0.148 0.515,-0.093 0.471,-0.049C0.428,-0.004 0.374,0.018 0.311,0.018C0.256,0.018 0.206,-0.001 0.161,-0.04C0.117,-0.079 0.082,-0.13 0.058,-0.193C0.033,-0.256 0.021,-0.321 0.021,-0.389ZM0.217,-0.371C0.217,-0.336 0.222,-0.301 0.232,-0.268C0.241,-0.235 0.253,-0.208 0.268,-0.187C0.282,-0.166 0.296,-0.156 0.309,-0.156C0.323,-0.156 0.337,-0.166 0.352,-0.186C0.367,-0.206 0.379,-0.232 0.389,-0.265C0.399,-0.298 0.404,-0.334 0.404,-0.371C0.404,-0.427 0.373,-0.455 0.311,-0.455C0.248,-0.455 0.217,-0.427 0.217,-0.371Z" style="fill:white;fill-rule:nonzero;"/>
        </g>
        <g transform="matrix(111.578,0,0,111.578,903.663,901.871)">
            <path d="M0.34,-0.605C0.389,-0.605 0.43,-0.6 0.461,-0.591C0.493,-0.582 0.518,-0.561 0.538,-0.527C0.558,-0.493 0.568,-0.442 0.568,-0.373L0.568,-0L0.375,-0L0.375,-0.344C0.375,-0.371 0.374,-0.391 0.371,-0.403C0.368,-0.416 0.361,-0.425 0.349,-0.432C0.337,-0.438 0.318,-0.441 0.291,-0.441L0.246,-0.441L0.246,-0L0.053,-0L0.053,-0.605L0.34,-0.605Z" style="fill:white;fill-rule:nonzero;"/>
        </g>
        <g transform="matrix(111.578,0,0,111.578,1011.78,901.871)">
            <path d="M0.066,-0L0.066,-0.447L0.025,-0.447L0.025,-0.605L0.066,-0.605L0.066,-0.637C0.066,-0.701 0.082,-0.748 0.114,-0.776C0.145,-0.804 0.191,-0.818 0.252,-0.818L0.354,-0.818L0.402,-0.654L0.306,-0.654C0.288,-0.654 0.276,-0.651 0.269,-0.646C0.263,-0.64 0.26,-0.626 0.26,-0.605L0.373,-0.605L0.373,-0.447L0.26,-0.447L0.26,-0L0.066,-0Z" style="fill:white;fill-rule:nonzero;"/>
        </g>
        <g transform="matrix(111.578,0,0,111.578,1054.3,901.871)">
            <path d="M0.021,-0.389C0.021,-0.428 0.027,-0.462 0.039,-0.492C0.05,-0.521 0.067,-0.545 0.089,-0.564C0.111,-0.582 0.136,-0.596 0.167,-0.605C0.197,-0.614 0.231,-0.619 0.268,-0.619L0.354,-0.619C0.424,-0.619 0.483,-0.601 0.53,-0.566C0.577,-0.53 0.6,-0.471 0.6,-0.389C0.6,-0.334 0.59,-0.275 0.568,-0.211C0.547,-0.148 0.515,-0.093 0.471,-0.049C0.428,-0.004 0.374,0.018 0.311,0.018C0.256,0.018 0.206,-0.001 0.161,-0.04C0.117,-0.079 0.082,-0.13 0.058,-0.193C0.033,-0.256 0.021,-0.321 0.021,-0.389ZM0.217,-0.371C0.217,-0.336 0.222,-0.301 0.232,-0.268C0.241,-0.235 0.253,-0.208 0.268,-0.187C0.282,-0.166 0.296,-0.156 0.309,-0.156C0.323,-0.156 0.337,-0.166 0.352,-0.186C0.367,-0.206 0.379,-0.232 0.389,-0.265C0.399,-0.298 0.404,-0.334 0.404,-0.371C0.404,-0.427 0.373,-0.455 0.311,-0.455C0.248,-0.455 0.217,-0.427 0.217,-0.371Z" style="fill:white;fill-rule:nonzero;"/>
        </g>
        <g transform="matrix(111.578,0,0,111.578,1123.36,901.871)">
            <path d="M0.059,-0L0.059,-0.605L0.242,-0.605L0.242,-0.57C0.277,-0.603 0.322,-0.619 0.377,-0.619L0.377,-0.445C0.317,-0.443 0.275,-0.421 0.25,-0.381L0.25,-0L0.059,-0Z" style="fill:white;fill-rule:nonzero;"/>
        </g>
        <g transform="matrix(111.578,0,0,111.578,1207.04,901.871)">
            <path d="M0.057,0.209L0.057,-0.605L0.348,-0.605C0.436,-0.605 0.5,-0.584 0.54,-0.542C0.58,-0.5 0.6,-0.443 0.6,-0.371C0.6,-0.307 0.585,-0.248 0.555,-0.194C0.525,-0.14 0.483,-0.095 0.43,-0.059C0.376,-0.024 0.316,0.001 0.248,0.014L0.248,0.209L0.057,0.209ZM0.248,-0.162C0.28,-0.167 0.308,-0.18 0.332,-0.201C0.356,-0.221 0.374,-0.246 0.386,-0.274C0.398,-0.302 0.404,-0.33 0.404,-0.357C0.404,-0.389 0.396,-0.412 0.38,-0.423C0.365,-0.435 0.341,-0.441 0.309,-0.441L0.248,-0.441L0.248,-0.162Z" style="fill:white;fill-rule:nonzero;"/>
        </g>
        <g transform="matrix(111.578,0,0,111.578,1276.1,901.871)">
            <path d="M0.059,-0L0.059,-0.605L0.242,-0.605L0.242,-0.57C0.277,-0.603 0.322,-0.619 0.377,-0.619L0.377,-0.445C0.317,-0.443 0.275,-0.421 0.25,-0.381L0.25,-0L0.059,-0Z" style="fill:white;fill-rule:nonzero;"/>
        </g>
        <g transform="matrix(111.578,0,0,111.578,1320.72,901.871)">
            <path d="M0.021,-0.389C0.021,-0.428 0.027,-0.462 0.039,-0.492C0.05,-0.521 0.067,-0.545 0.089,-0.564C0.111,-0.582 0.136,-0.596 0.167,-0.605C0.197,-0.614 0.231,-0.619 0.268,-0.619L0.354,-0.619C0.424,-0.619 0.483,-0.601 0.53,-0.566C0.577,-0.53 0.6,-0.471 0.6,-0.389C0.6,-0.334 0.59,-0.275 0.568,-0.211C0.547,-0.148 0.515,-0.093 0.471,-0.049C0.428,-0.004 0.374,0.018 0.311,0.018C0.256,0.018 0.206,-0.001 0.161,-0.04C0.117,-0.079 0.082,-0.13 0.058,-0.193C0.033,-0.256 0.021,-0.321 0.021,-0.389ZM0.217,-0.371C0.217,-0.336 0.222,-0.301 0.232,-0.268C0.241,-0.235 0.253,-0.208 0.268,-0.187C0.282,-0.166 0.296,-0.156 0.309,-0.156C0.323,-0.156 0.337,-0.166 0.352,-0.186C0.367,-0.206 0.379,-0.232 0.389,-0.265C0.399,-0.298 0.404,-0.334 0.404,-0.371C0.404,-0.427 0.373,-0.455 0.311,-0.455C0.248,-0.455 0.217,-0.427 0.217,-0.371Z" style="fill:white;fill-rule:nonzero;"/>
        </g>
        <g transform="matrix(111.578,0,0,111.578,1389.77,901.871)">
            <path d="M0.055,-0L0.055,-0.605L0.629,-0.605C0.688,-0.605 0.734,-0.595 0.766,-0.575C0.798,-0.556 0.819,-0.529 0.83,-0.495C0.841,-0.462 0.846,-0.42 0.846,-0.371L0.846,-0L0.658,-0L0.658,-0.344C0.658,-0.372 0.657,-0.392 0.654,-0.405C0.651,-0.418 0.644,-0.427 0.632,-0.432C0.621,-0.438 0.601,-0.441 0.574,-0.441L0.543,-0.441L0.543,-0L0.355,-0L0.355,-0.441L0.24,-0.441L0.24,-0L0.055,-0Z" style="fill:white;fill-rule:nonzero;"/>
        </g>
        <g transform="matrix(111.578,0,0,111.578,1490.18,901.871)">
            <path d="M0.021,-0.389C0.021,-0.428 0.027,-0.462 0.039,-0.492C0.05,-0.521 0.067,-0.545 0.089,-0.564C0.111,-0.582 0.136,-0.596 0.167,-0.605C0.197,-0.614 0.231,-0.619 0.268,-0.619L0.354,-0.619C0.424,-0.619 0.483,-0.601 0.53,-0.566C0.577,-0.53 0.6,-0.471 0.6,-0.389C0.6,-0.334 0.59,-0.275 0.568,-0.211C0.547,-0.148 0.515,-0.093 0.471,-0.049C0.428,-0.004 0.374,0.018 0.311,0.018C0.256,0.018 0.206,-0.001 0.161,-0.04C0.117,-0.079 0.082,-0.13 0.058,-0.193C0.033,-0.256 0.021,-0.321 0.021,-0.389ZM0.217,-0.371C0.217,-0.336 0.222,-0.301 0.232,-0.268C0.241,-0.235 0.253,-0.208 0.268,-0.187C0.282,-0.166 0.296,-0.156 0.309,-0.156C0.323,-0.156 0.337,-0.166 0.352,-0.186C0.367,-0.206 0.379,-0.232 0.389,-0.265C0.399,-0.298 0.404,-0.334 0.404,-0.371C0.404,-0.427 0.373,-0.455 0.311,-0.455C0.248,-0.455 0.217,-0.427 0.217,-0.371Z" style="fill:white;fill-rule:nonzero;"/>
        </g>
        <g transform="matrix(111.578,0,0,111.578,1559.24,901.871)">
            <path d="M0.063,-0.186L0.063,-0.447L0.02,-0.447L0.02,-0.605L0.063,-0.605L0.063,-0.723L0.256,-0.779L0.256,-0.605L0.355,-0.605L0.355,-0.447L0.256,-0.447L0.256,-0.217C0.256,-0.201 0.257,-0.19 0.26,-0.182C0.262,-0.175 0.267,-0.169 0.276,-0.167C0.284,-0.164 0.296,-0.162 0.313,-0.162L0.381,-0.162L0.332,-0L0.246,-0C0.204,-0 0.17,-0.007 0.142,-0.02C0.115,-0.033 0.095,-0.054 0.082,-0.081C0.069,-0.108 0.063,-0.143 0.063,-0.186Z" style="fill:white;fill-rule:nonzero;"/>
        </g>
        <g transform="matrix(111.578,0,0,111.578,1601.76,901.871)">
            <path d="M0.246,-0.605L0.246,-0L0.055,-0L0.055,-0.605L0.246,-0.605ZM0.246,-0.818L0.246,-0.654L0.055,-0.654L0.055,-0.818L0.246,-0.818Z" style="fill:white;fill-rule:nonzero;"/>
        </g>
        <g transform="matrix(111.578,0,0,111.578,1635.35,901.871)">
            <path d="M0.34,-0.605C0.389,-0.605 0.43,-0.6 0.461,-0.591C0.493,-0.582 0.518,-0.561 0.538,-0.527C0.558,-0.493 0.568,-0.442 0.568,-0.373L0.568,-0L0.375,-0L0.375,-0.344C0.375,-0.371 0.374,-0.391 0.371,-0.403C0.368,-0.416 0.361,-0.425 0.349,-0.432C0.337,-0.438 0.318,-0.441 0.291,-0.441L0.246,-0.441L0.246,-0L0.053,-0L0.053,-0.605L0.34,-0.605Z" style="fill:white;fill-rule:nonzero;"/>
        </g>
        <g transform="matrix(111.578,0,0,111.578,1704.41,901.871)">
            <path d="M0.02,-0.373C0.02,-0.42 0.028,-0.459 0.043,-0.49C0.059,-0.521 0.079,-0.544 0.104,-0.561C0.129,-0.578 0.156,-0.589 0.184,-0.595C0.212,-0.602 0.241,-0.605 0.271,-0.605L0.564,-0.605L0.564,-0.006C0.564,0.054 0.558,0.099 0.545,0.13C0.533,0.16 0.51,0.182 0.477,0.194C0.445,0.207 0.396,0.213 0.332,0.213L0.119,0.213L0.07,0.051L0.311,0.051C0.332,0.051 0.347,0.048 0.357,0.042C0.367,0.036 0.372,0.022 0.373,-0C0.322,-0 0.275,-0.01 0.232,-0.031C0.188,-0.052 0.15,-0.08 0.119,-0.116C0.087,-0.152 0.063,-0.193 0.046,-0.237C0.029,-0.282 0.02,-0.327 0.02,-0.373ZM0.373,-0.441L0.311,-0.441C0.281,-0.441 0.258,-0.435 0.241,-0.423C0.225,-0.411 0.217,-0.389 0.217,-0.357C0.217,-0.33 0.223,-0.302 0.235,-0.274C0.248,-0.245 0.265,-0.221 0.289,-0.2C0.312,-0.18 0.34,-0.167 0.373,-0.162L0.373,-0.441Z" style="fill:white;fill-rule:nonzero;"/>
        </g>
        <g transform="matrix(111.578,0,0,111.578,1812.52,901.871)">
            <path d="M0.072,-0L0.072,-0.609L0.287,-0.609L0.287,-0.184L0.41,-0.184C0.441,-0.184 0.464,-0.187 0.48,-0.193C0.496,-0.199 0.504,-0.212 0.504,-0.232C0.504,-0.246 0.499,-0.261 0.489,-0.278C0.479,-0.295 0.465,-0.312 0.447,-0.329C0.429,-0.347 0.407,-0.364 0.381,-0.381C0.356,-0.399 0.328,-0.415 0.297,-0.43C0.304,-0.436 0.325,-0.452 0.361,-0.478C0.397,-0.504 0.423,-0.527 0.441,-0.544C0.458,-0.562 0.467,-0.58 0.467,-0.596C0.467,-0.608 0.464,-0.617 0.457,-0.622C0.45,-0.627 0.44,-0.63 0.426,-0.631C0.413,-0.632 0.39,-0.633 0.359,-0.633L0.033,-0.633L0.082,-0.818L0.469,-0.818C0.629,-0.818 0.709,-0.755 0.709,-0.629C0.709,-0.601 0.703,-0.575 0.692,-0.552C0.681,-0.528 0.669,-0.509 0.656,-0.496C0.643,-0.482 0.625,-0.464 0.602,-0.443C0.64,-0.414 0.673,-0.381 0.701,-0.342C0.73,-0.304 0.744,-0.256 0.744,-0.199C0.744,-0.146 0.729,-0.104 0.7,-0.075C0.671,-0.045 0.636,-0.025 0.596,-0.015C0.555,-0.005 0.513,-0 0.469,-0L0.072,-0Z" style="fill:white;fill-rule:nonzero;"/>
        </g>
        <g transform="matrix(111.578,0,0,111.578,1899.45,901.871)">
            <path d="M0.02,-0.373C0.02,-0.433 0.032,-0.48 0.057,-0.514C0.082,-0.549 0.113,-0.573 0.151,-0.586C0.188,-0.599 0.228,-0.605 0.271,-0.605L0.564,-0.605L0.564,-0L0.371,-0C0.302,-0 0.24,-0.018 0.187,-0.054C0.133,-0.091 0.092,-0.138 0.063,-0.196C0.034,-0.254 0.02,-0.313 0.02,-0.373ZM0.299,-0.441C0.269,-0.441 0.248,-0.434 0.236,-0.42C0.223,-0.406 0.217,-0.385 0.217,-0.357C0.217,-0.329 0.223,-0.302 0.235,-0.274C0.247,-0.245 0.265,-0.221 0.289,-0.201C0.312,-0.181 0.34,-0.168 0.373,-0.162L0.373,-0.441L0.299,-0.441Z" style="fill:white;fill-rule:nonzero;"/>
        </g>
        <g transform="matrix(111.578,0,0,111.578,1968.51,901.871)">
            <path d="M0.125,-0.162C0.128,-0.162 0.133,-0.162 0.14,-0.161C0.147,-0.16 0.153,-0.16 0.158,-0.16C0.18,-0.16 0.191,-0.166 0.191,-0.178C0.191,-0.186 0.182,-0.202 0.164,-0.225L0.084,-0.328C0.064,-0.354 0.049,-0.377 0.039,-0.397C0.028,-0.417 0.023,-0.44 0.023,-0.465C0.023,-0.488 0.029,-0.51 0.041,-0.532C0.054,-0.553 0.072,-0.571 0.097,-0.584C0.121,-0.598 0.151,-0.605 0.186,-0.605L0.348,-0.605L0.395,-0.447L0.309,-0.447C0.29,-0.447 0.276,-0.445 0.267,-0.442C0.258,-0.439 0.254,-0.433 0.254,-0.424C0.254,-0.417 0.264,-0.401 0.283,-0.377L0.355,-0.287C0.394,-0.238 0.414,-0.192 0.414,-0.148C0.414,-0.12 0.407,-0.095 0.393,-0.072C0.38,-0.049 0.361,-0.032 0.338,-0.019C0.315,-0.006 0.29,-0 0.264,-0L0.066,-0L0.02,-0.162L0.125,-0.162Z" style="fill:white;fill-rule:nonzero;"/>
        </g>
        <g transform="matrix(111.578,0,0,111.578,2017.48,901.871)">
            <path d="M0.246,-0.605L0.246,-0L0.055,-0L0.055,-0.605L0.246,-0.605ZM0.246,-0.818L0.246,-0.654L0.055,-0.654L0.055,-0.818L0.246,-0.818Z" style="fill:white;fill-rule:nonzero;"/>
        </g>
        <g transform="matrix(111.578,0,0,111.578,2051.07,901.871)">
            <path d="M0.02,-0.373C0.02,-0.431 0.032,-0.478 0.056,-0.512C0.08,-0.547 0.111,-0.571 0.149,-0.585C0.186,-0.598 0.227,-0.605 0.271,-0.605L0.393,-0.605L0.439,-0.441L0.313,-0.441C0.294,-0.441 0.278,-0.439 0.264,-0.436C0.251,-0.432 0.24,-0.425 0.231,-0.412C0.222,-0.4 0.217,-0.382 0.217,-0.357C0.217,-0.329 0.224,-0.299 0.238,-0.269C0.252,-0.238 0.272,-0.213 0.297,-0.193C0.322,-0.172 0.351,-0.162 0.383,-0.162L0.451,-0.162L0.402,-0L0.371,-0C0.307,-0 0.248,-0.017 0.194,-0.052C0.14,-0.087 0.098,-0.133 0.067,-0.191C0.036,-0.249 0.02,-0.31 0.02,-0.373Z" style="fill:white;fill-rule:nonzero;"/>
        </g>
        <g transform="matrix(111.578,0,0,111.578,2141.57,901.871)">
            <path d="M0.033,-0.184L0.227,-0.184C0.255,-0.184 0.275,-0.186 0.288,-0.189C0.3,-0.192 0.307,-0.199 0.307,-0.211C0.307,-0.218 0.305,-0.225 0.301,-0.232C0.297,-0.239 0.291,-0.246 0.283,-0.255C0.275,-0.263 0.271,-0.268 0.271,-0.268L0.127,-0.432C0.106,-0.456 0.088,-0.476 0.075,-0.494C0.062,-0.511 0.05,-0.532 0.04,-0.555C0.03,-0.579 0.025,-0.603 0.025,-0.629C0.025,-0.664 0.033,-0.697 0.05,-0.725C0.067,-0.754 0.092,-0.777 0.125,-0.793C0.158,-0.81 0.198,-0.818 0.246,-0.818L0.477,-0.818L0.527,-0.633L0.346,-0.633C0.319,-0.633 0.299,-0.632 0.286,-0.628C0.274,-0.625 0.268,-0.618 0.268,-0.605C0.268,-0.597 0.27,-0.59 0.274,-0.584C0.277,-0.578 0.287,-0.566 0.303,-0.549L0.453,-0.383C0.484,-0.35 0.508,-0.319 0.526,-0.289C0.544,-0.26 0.553,-0.225 0.553,-0.186C0.552,-0.155 0.547,-0.128 0.536,-0.104C0.525,-0.081 0.51,-0.061 0.49,-0.046C0.47,-0.03 0.447,-0.019 0.42,-0.011C0.394,-0.004 0.364,-0 0.332,-0L0.082,-0L0.033,-0.184Z" style="fill:white;fill-rule:nonzero;"/>
        </g>
        <g transform="matrix(111.578,0,0,111.578,2204.17,901.871)">
            <path d="M0.02,-0.373C0.02,-0.431 0.032,-0.478 0.056,-0.512C0.08,-0.547 0.111,-0.571 0.149,-0.585C0.186,-0.598 0.227,-0.605 0.271,-0.605L0.393,-0.605L0.439,-0.441L0.313,-0.441C0.294,-0.441 0.278,-0.439 0.264,-0.436C0.251,-0.432 0.24,-0.425 0.231,-0.412C0.222,-0.4 0.217,-0.382 0.217,-0.357C0.217,-0.329 0.224,-0.299 0.238,-0.269C0.252,-0.238 0.272,-0.213 0.297,-0.193C0.322,-0.172 0.351,-0.162 0.383,-0.162L0.451,-0.162L0.402,-0L0.371,-0C0.307,-0 0.248,-0.017 0.194,-0.052C0.14,-0.087 0.098,-0.133 0.067,-0.191C0.036,-0.249 0.02,-0.31 0.02,-0.373Z" style="fill:white;fill-rule:nonzero;"/>
        </g>
        <g transform="matrix(111.578,0,0,111.578,2255.6,901.871)">
            <path d="M0.246,-0.605L0.246,-0L0.055,-0L0.055,-0.605L0.246,-0.605ZM0.246,-0.818L0.246,-0.654L0.055,-0.654L0.055,-0.818L0.246,-0.818Z" style="fill:white;fill-rule:nonzero;"/>
        </g>
        <g transform="matrix(111.578,0,0,111.578,2289.18,901.871)">
            <path d="M0.02,-0.373C0.02,-0.419 0.026,-0.458 0.038,-0.49C0.05,-0.522 0.068,-0.547 0.092,-0.566C0.115,-0.585 0.144,-0.598 0.178,-0.607C0.212,-0.615 0.252,-0.619 0.297,-0.619C0.353,-0.619 0.399,-0.615 0.437,-0.608C0.475,-0.6 0.506,-0.584 0.529,-0.56C0.552,-0.535 0.564,-0.499 0.564,-0.451C0.564,-0.405 0.552,-0.364 0.527,-0.328C0.502,-0.291 0.474,-0.261 0.444,-0.239C0.414,-0.216 0.381,-0.194 0.346,-0.174C0.371,-0.166 0.409,-0.162 0.459,-0.162L0.535,-0.162L0.488,-0L0.371,-0C0.326,-0 0.282,-0.009 0.239,-0.028C0.197,-0.047 0.159,-0.074 0.126,-0.108C0.093,-0.142 0.067,-0.182 0.048,-0.228C0.029,-0.274 0.02,-0.322 0.02,-0.373ZM0.229,-0.293C0.255,-0.305 0.285,-0.323 0.318,-0.35C0.352,-0.376 0.369,-0.401 0.369,-0.426C0.369,-0.445 0.349,-0.455 0.309,-0.455C0.283,-0.455 0.261,-0.448 0.243,-0.434C0.226,-0.421 0.217,-0.398 0.217,-0.365C0.217,-0.348 0.221,-0.324 0.229,-0.293Z" style="fill:white;fill-rule:nonzero;"/>
        </g>
        <g transform="matrix(111.578,0,0,111.578,2353.91,901.871)">
            <path d="M0.34,-0.605C0.389,-0.605 0.43,-0.6 0.461,-0.591C0.493,-0.582 0.518,-0.561 0.538,-0.527C0.558,-0.493 0.568,-0.442 0.568,-0.373L0.568,-0L0.375,-0L0.375,-0.344C0.375,-0.371 0.374,-0.391 0.371,-0.403C0.368,-0.416 0.361,-0.425 0.349,-0.432C0.337,-0.438 0.318,-0.441 0.291,-0.441L0.246,-0.441L0.246,-0L0.053,-0L0.053,-0.605L0.34,-0.605Z" style="fill:white;fill-rule:nonzero;"/>
        </g>
        <g transform="matrix(111.578,0,0,111.578,2422.96,901.871)">
            <path d="M0.02,-0.373C0.02,-0.431 0.032,-0.478 0.056,-0.512C0.08,-0.547 0.111,-0.571 0.149,-0.585C0.186,-0.598 0.227,-0.605 0.271,-0.605L0.393,-0.605L0.439,-0.441L0.313,-0.441C0.294,-0.441 0.278,-0.439 0.264,-0.436C0.251,-0.432 0.24,-0.425 0.231,-0.412C0.222,-0.4 0.217,-0.382 0.217,-0.357C0.217,-0.329 0.224,-0.299 0.238,-0.269C0.252,-0.238 0.272,-0.213 0.297,-0.193C0.322,-0.172 0.351,-0.162 0.383,-0.162L0.451,-0.162L0.402,-0L0.371,-0C0.307,-0 0.248,-0.017 0.194,-0.052C0.14,-0.087 0.098,-0.133 0.067,-0.191C0.036,-0.249 0.02,-0.31 0.02,-0.373Z" style="fill:white;fill-rule:nonzero;"/>
        </g>
        <g transform="matrix(111.578,0,0,111.578,2474.39,901.871)">
            <path d="M0.02,-0.373C0.02,-0.419 0.026,-0.458 0.038,-0.49C0.05,-0.522 0.068,-0.547 0.092,-0.566C0.115,-0.585 0.144,-0.598 0.178,-0.607C0.212,-0.615 0.252,-0.619 0.297,-0.619C0.353,-0.619 0.399,-0.615 0.437,-0.608C0.475,-0.6 0.506,-0.584 0.529,-0.56C0.552,-0.535 0.564,-0.499 0.564,-0.451C0.564,-0.405 0.552,-0.364 0.527,-0.328C0.502,-0.291 0.474,-0.261 0.444,-0.239C0.414,-0.216 0.381,-0.194 0.346,-0.174C0.371,-0.166 0.409,-0.162 0.459,-0.162L0.535,-0.162L0.488,-0L0.371,-0C0.326,-0 0.282,-0.009 0.239,-0.028C0.197,-0.047 0.159,-0.074 0.126,-0.108C0.093,-0.142 0.067,-0.182 0.048,-0.228C0.029,-0.274 0.02,-0.322 0.02,-0.373ZM0.229,-0.293C0.255,-0.305 0.285,-0.323 0.318,-0.35C0.352,-0.376 0.369,-0.401 0.369,-0.426C0.369,-0.445 0.349,-0.455 0.309,-0.455C0.283,-0.455 0.261,-0.448 0.243,-0.434C0.226,-0.421 0.217,-0.398 0.217,-0.365C0.217,-0.348 0.221,-0.324 0.229,-0.293Z" style="fill:white;fill-rule:nonzero;"/>
        </g>
    </g>
</svg>
